<svg width="25" height="24" viewBox="0 0 25 24" fill="none" xmlns="http://www.w3.org/2000/svg">
<g clip-path="url(#clip0_7510_790)">
<path d="M24.3999 12.0441C24.3999 5.39238 19.0273 0 12.3999 0C5.77254 0 0.399902 5.39238 0.399902 12.0441C0.399902 17.6923 4.27446 22.4319 9.50118 23.7336V15.7248H7.02678V12.0441H9.50118V10.4581C9.50118 6.35879 11.3497 4.45872 15.3596 4.45872C16.1199 4.45872 17.4317 4.60855 17.9684 4.75789V8.0941C17.6852 8.06423 17.1932 8.0493 16.5821 8.0493C14.6146 8.0493 13.8543 8.79748 13.8543 10.7424V12.0441H17.774L17.1005 15.7248H13.8543V24C19.7962 23.2798 24.4004 18.202 24.4004 12.0441H24.3999Z" fill="#2C1F1F"/>
</g>
<defs>
<clipPath id="clip0_7510_790">
<rect width="24" height="24" fill="white" transform="translate(0.399902)"/>
</clipPath>
</defs>
</svg>
