<svg width="25" height="24" viewBox="0 0 25 24" fill="none" xmlns="http://www.w3.org/2000/svg">
<g clip-path="url(#clip0_7510_788)">
<path d="M7.43 0.0839251C6.1532 0.144165 5.28128 0.347925 4.51904 0.647445C3.73016 0.954885 3.06152 1.36745 2.39624 2.03513C1.73096 2.70281 1.32128 3.37193 1.016 4.16201C0.720562 4.92593 0.520402 5.79857 0.464002 7.07609C0.407602 8.35361 0.395122 8.76425 0.401362 12.023C0.407602 15.2817 0.422002 15.6902 0.483922 16.9703C0.544882 18.2469 0.747922 19.1186 1.04744 19.881C1.35536 20.6699 1.76744 21.3383 2.43536 22.0038C3.10328 22.6694 3.77192 23.0781 4.56392 23.3838C5.32712 23.6788 6.2 23.8799 7.47728 23.9358C8.75456 23.9918 9.16568 24.0047 12.4234 23.9985C15.6812 23.9922 16.0914 23.9778 17.3713 23.9171C18.6512 23.8564 19.5183 23.6519 20.281 23.3538C21.0699 23.0452 21.7388 22.6338 22.4038 21.9657C23.0689 21.2975 23.4783 20.6279 23.7834 19.8374C24.079 19.0742 24.2799 18.2013 24.3354 16.925C24.3913 15.6441 24.4045 15.2351 24.3982 11.9769C24.392 8.71865 24.3774 8.31017 24.3166 7.03049C24.2559 5.75081 24.0526 4.88177 23.7534 4.11881C23.445 3.32993 23.0334 2.66201 22.3657 1.99601C21.698 1.33001 21.0279 0.920805 20.2376 0.616485C19.4739 0.321045 18.6015 0.119685 17.3242 0.0644851C16.047 0.00928514 15.6358 -0.00487487 12.3769 0.00136513C9.11792 0.00760513 8.70992 0.0215251 7.43 0.0839251ZM7.57016 21.777C6.40016 21.7262 5.76488 21.5318 5.34152 21.369C4.78088 21.153 4.38152 20.8919 3.9596 20.4741C3.53768 20.0562 3.27848 19.6554 3.0596 19.096C2.8952 18.6726 2.6972 18.0381 2.64248 16.8681C2.58296 15.6035 2.57048 15.2238 2.56352 12.0201C2.55656 8.81633 2.5688 8.43713 2.62424 7.17209C2.67416 6.00305 2.86976 5.36705 3.03224 4.94393C3.24824 4.38257 3.5084 3.98393 3.9272 3.56225C4.346 3.14057 4.7456 2.88089 5.30552 2.66201C5.7284 2.49689 6.36296 2.30057 7.53248 2.24489C8.798 2.18489 9.1772 2.17289 12.3805 2.16593C15.5838 2.15897 15.9639 2.17097 17.2299 2.22664C18.399 2.27753 19.0352 2.4712 19.4578 2.63464C20.0187 2.85065 20.4178 3.11009 20.8395 3.52961C21.2612 3.94913 21.5211 4.34729 21.74 4.90841C21.9054 5.33009 22.1017 5.96441 22.1569 7.13465C22.2171 8.40017 22.2308 8.7796 22.2366 11.9826C22.2423 15.1857 22.231 15.5661 22.1756 16.8306C22.1245 18.0006 21.9306 18.6362 21.7676 19.06C21.5516 19.6204 21.2912 20.02 20.8722 20.4414C20.4531 20.8629 20.054 21.1226 19.4938 21.3414C19.0714 21.5063 18.4362 21.7031 17.2676 21.7588C16.0021 21.8183 15.6229 21.8308 12.4184 21.8378C9.21392 21.8447 8.83592 21.8318 7.5704 21.777M17.3528 5.58641C17.3533 5.87123 17.4382 6.14952 17.5969 6.38607C17.7555 6.62262 17.9807 6.80681 18.2441 6.91535C18.5074 7.02389 18.797 7.05189 19.0763 6.99583C19.3555 6.93976 19.6119 6.80214 19.8129 6.60037C20.0139 6.3986 20.1506 6.14174 20.2057 5.86228C20.2607 5.58283 20.2316 5.29333 20.1221 5.03039C20.0126 4.76746 19.8276 4.5429 19.5905 4.38512C19.3533 4.22735 19.0747 4.14344 18.7899 4.14401C18.4081 4.14477 18.0422 4.29715 17.7727 4.56764C17.5032 4.83813 17.3522 5.20458 17.3528 5.58641ZM6.2384 12.0119C6.24512 15.4151 9.00896 18.1677 12.4114 18.1612C15.8139 18.1547 18.5684 15.3911 18.5619 11.9879C18.5554 8.58473 15.7909 5.83145 12.3879 5.83817C8.98496 5.84489 6.23192 8.60921 6.2384 12.0119ZM8.39984 12.0076C8.39828 11.2165 8.63135 10.4426 9.06958 9.78395C9.50781 9.12527 10.1315 8.61134 10.8618 8.30714C11.5922 8.00294 12.3963 7.92213 13.1725 8.07494C13.9488 8.22774 14.6623 8.6073 15.2228 9.16561C15.7833 9.72393 16.1657 10.4359 16.3216 11.2115C16.4775 11.9872 16.3998 12.7916 16.0985 13.5231C15.7972 14.2547 15.2858 14.8804 14.6288 15.3212C13.9719 15.7621 13.199 15.9982 12.4078 15.9998C11.8825 16.0009 11.3621 15.8985 10.8764 15.6984C10.3907 15.4984 9.94909 15.2046 9.5769 14.8339C9.20471 14.4632 8.90919 14.0228 8.70723 13.5378C8.50527 13.0529 8.40082 12.5329 8.39984 12.0076Z" fill="#2C1F1F"/>
</g>
<defs>
<clipPath id="clip0_7510_788">
<rect width="24" height="24" fill="white" transform="translate(0.400024)"/>
</clipPath>
</defs>
</svg>
