<svg width="23" height="22" viewBox="0 0 23 22" fill="none" xmlns="http://www.w3.org/2000/svg">
<path d="M0 12.7528L0.0565205 18.1431C0.0565205 18.1431 4.91424 21.2661 6.129 21.483C7.34332 21.7 11.6811 22.1335 12.4184 21.96C13.1558 21.7865 16.8862 19.6179 17.1462 19.3574C17.4066 19.097 19.7487 15.6706 19.5318 15.1936C19.3148 14.7167 18.9244 14.2828 18.144 14.5432C17.3631 14.8036 15.4979 17.3627 15.151 17.5792C14.804 17.7962 12.505 18.967 11.8111 18.7935C11.1172 18.6201 9.16502 17.5792 9.03503 17.1453C8.90503 16.7114 9.51197 15.7575 11.2037 16.0175C12.9271 16.2827 13.8336 16.1884 13.9797 15.4101C14.2401 14.0223 13.4593 14.0223 11.0302 13.4584C8.60112 12.8945 7.64158 12.9906 5.73857 13.8923C4.6086 14.4275 2.30213 12.9941 1.01085 12.2006C0.573466 11.9319 0.0104346 12.2398 0 12.7528Z" fill="#E7E1E1"/>
<path d="M22.0613 9.24722L22.0048 3.8569C22.0048 3.8569 17.1471 0.733926 15.9323 0.516974C14.7175 0.300022 10.3807 -0.133447 9.6433 0.0400276C8.90593 0.213502 5.17557 2.38215 4.91558 2.64258C4.65558 2.90301 2.31302 6.32946 2.52998 6.80641C2.74693 7.28335 3.13735 7.71726 3.91777 7.45683C4.69819 7.1964 6.5638 4.63732 6.91075 4.4208C7.2577 4.20429 9.55678 3.03301 10.2507 3.20648C10.9446 3.37996 12.8967 4.4208 13.0267 4.85471C13.1567 5.28861 12.5498 6.2425 10.8581 5.98251C9.13462 5.7173 8.22812 5.81164 8.08203 6.58989C7.8216 7.97769 8.60246 7.97769 11.0315 8.54159C13.4606 9.10549 14.4202 9.0094 16.3232 8.10768C17.4531 7.57248 19.7596 9.00592 21.0509 9.79939C21.4883 10.0681 22.0513 9.76026 22.0617 9.24722H22.0613Z" fill="#E7E1E1"/>
<path d="M19.0988 14.2667C18.8397 12.8963 17.9584 12.0433 17.1936 11.8767C17.5506 11.8563 18.0571 11.702 18.2458 11.0281C18.5492 9.94373 18.4049 8.54115 16.3228 8.10768C14.4198 9.00897 13.4602 9.10549 11.0311 8.54159C8.60205 7.97769 7.82164 7.97769 8.08163 6.58989C8.22728 5.81208 9.13422 5.71774 10.8577 5.98251C12.5494 6.24294 13.1563 5.28861 13.0263 4.85471C12.8963 4.42081 10.9442 3.37996 10.2503 3.20648C9.55638 3.03301 7.2573 4.20429 6.91035 4.42081C6.5634 4.63776 4.69822 7.19683 3.91737 7.45683C3.74172 7.51509 3.58651 7.53857 3.44782 7.53422C3.2913 8.39985 3.26434 9.78069 4.58257 10.0737C4.58257 10.0737 3.67172 11.9824 5.04517 13.1389C5.26734 13.3258 5.50734 13.5819 5.75603 13.8836C7.64686 12.9902 8.60858 12.8963 11.0298 13.4584C13.4589 14.0223 14.2393 14.0223 13.9793 15.4101C13.8337 16.1879 12.9267 16.2823 11.2033 16.0175C9.5116 15.7571 8.90466 16.7114 9.03465 17.1453C9.16465 17.5792 11.1168 18.6201 11.8107 18.7935C12.5046 18.967 14.8037 17.7957 15.1506 17.5792C15.4976 17.3623 17.3627 14.8032 18.1436 14.5432C18.571 14.4006 18.881 14.4662 19.1097 14.6328C19.1231 14.5054 19.1205 14.3832 19.0988 14.2671V14.2667Z" fill="#2C1F1F"/>
</svg>
