<svg width="30" height="24" viewBox="0 0 30 24" fill="none" xmlns="http://www.w3.org/2000/svg">
<g clip-path="url(#clip0_7510_793)">
<path d="M26.16 0.000244141H3.24C1.452 0.000244141 0 1.45224 0 3.24024V20.7602C0 22.5362 1.452 24.0002 3.24 24.0002H26.16C27.936 24.0002 29.4 22.5482 29.4 20.7602V3.24024C29.4 1.46424 27.948 0.000244141 26.16 0.000244141ZM4.236 1.80024H25.164C26.28 1.80024 27.192 2.71224 27.192 3.82824V4.08024L14.7 11.8922L2.208 4.08024V3.82824C2.208 2.71224 3.12 1.80024 4.236 1.80024ZM25.164 22.2002H4.236C3.12 22.2002 2.208 21.2882 2.208 20.1722V6.20424L14.7 14.0162L27.192 6.20424V20.1722C27.192 21.2882 26.28 22.2002 25.164 22.2002Z" fill="#2C1F1F"/>
</g>
<defs>
<clipPath id="clip0_7510_793">
<rect width="29.4" height="24" fill="white" transform="translate(0 0.000244141)"/>
</clipPath>
</defs>
</svg>
