<svg width="37" height="36" viewBox="0 0 37 36" fill="none" xmlns="http://www.w3.org/2000/svg">
<g style="mix-blend-mode:multiply" opacity="0.3">
<path d="M37 17.6417C37 19.1084 35.811 20.2974 34.3443 20.2974H25.1405C23.4837 20.2974 22.1405 21.6405 22.1405 23.2974V32.4695C22.1405 34.0235 20.8807 35.2833 19.3267 35.2833V35.2833C17.7727 35.2833 16.5129 34.0235 16.5129 32.4695V23.2974C16.5129 21.6405 15.1698 20.2974 13.5129 20.2974H4.30918C2.84246 20.2974 1.65344 19.1084 1.65344 17.6417V17.6417C1.65344 16.1749 2.84246 14.9859 4.30918 14.9859H13.5129C15.1698 14.9859 16.5129 13.6428 16.5129 11.9859V2.81381C16.5129 1.25979 17.7727 0 19.3267 0V0C20.8807 0 22.1405 1.25979 22.1405 2.81381V11.9859C22.1405 13.6428 23.4837 14.9859 25.1405 14.9859H34.3443C35.811 14.9859 37 16.1749 37 17.6417V17.6417Z" fill="#2C1F1F"/>
</g>
<path d="M29.4555 20.7014C29.4555 21.9237 28.4646 22.9145 27.2424 22.9145H20.0726C18.4157 22.9145 17.0726 24.2576 17.0726 25.9145V33.0579C17.0726 34.353 16.0228 35.4028 14.7277 35.4028V35.4028C13.4327 35.4028 12.3829 34.3529 12.3829 33.0579V25.9145C12.3829 24.2576 11.0397 22.9145 9.38289 22.9145H2.21311C0.990841 22.9145 0 21.9237 0 20.7014V20.7014C0 19.4791 0.990844 18.4883 2.21311 18.4883H9.38289C11.0397 18.4883 12.3829 17.1451 12.3829 15.4883V8.34484C12.3829 7.04982 13.4327 6 14.7277 6V6C16.0228 6 17.0726 7.04982 17.0726 8.34484V15.4883C17.0726 17.1451 18.4157 18.4883 20.0726 18.4883H27.2424C28.4646 18.4883 29.4555 19.4791 29.4555 20.7014V20.7014Z" fill="#C1272D"/>
</svg>
