<svg width="36" height="31" viewBox="0 0 36 31" fill="none" xmlns="http://www.w3.org/2000/svg">
<path opacity="0.3" d="M18.1376 24.849C14.9433 24.2568 8.23794 17.2013 7.13357 9.22569C6.0688 1.53259 11.5857 -1.50736 16.0081 0.704204C19.0845 2.24264 18.5521 6.03002 19.9127 6.38549C21.7011 6.85218 23.9828 -0.533489 31.6266 1.65138C34.1115 2.36143 39.5541 7.92438 32.573 16.6825C25.5924 25.4407 20.3757 25.2636 18.1376 24.849Z" fill="#2C1F1F"/>
<path d="M8.06516 30.8913C5.75203 30.4649 0.896436 25.3849 0.0967263 19.6425C-0.674319 14.1035 3.32069 11.9147 6.52307 13.507C8.75086 14.6147 8.36534 17.3416 9.35056 17.5976C10.6456 17.9336 12.2979 12.6159 17.833 14.189C19.6325 14.7002 23.5737 18.7055 18.5184 25.0114C13.4634 31.3173 9.68584 31.1898 8.06516 30.8913Z" fill="#C1272D"/>
</svg>
