<svg width="14" height="22" viewBox="0 0 14 22" fill="none" xmlns="http://www.w3.org/2000/svg">
<path d="M6.64284 0.0289912C6.32958 0.045231 4.70933 0.181078 4.56714 0.386267C4.33456 0.72189 4.61571 0.97786 4.72229 1.17196C4.74522 1.21398 4.72202 1.27301 4.73713 1.32096C4.80323 1.52821 4.84694 1.76923 4.85665 2.00277C4.73713 1.92106 4.65807 1.86306 4.60411 1.83238C3.32518 1.10572 1.60375 1.46737 0.774602 2.60622C-0.067495 3.76234 -0.0218961 5.48376 0.198814 6.8296C0.448664 8.35357 1.16422 9.70302 0.872276 11.2878C0.803203 11.6629 0.507484 12.1521 0.57224 12.5751C0.575747 12.5986 0.669913 12.7136 0.679627 12.7824C0.735479 13.1809 -0.164359 15.6628 2.29313 20.1762C0.789442 22.6541 13.0521 22.4598 10.8636 20.4801C10.9135 20.4912 15.1135 15.5597 11.7715 10.0964C11.3546 9.41509 10.8366 8.95393 10.3995 8.33604C9.09574 6.49372 9.25277 3.62959 9.94647 1.55064C9.9632 1.50011 9.93271 1.42355 9.94998 1.37844C10.0172 1.20187 10.3588 0.829124 10.372 0.694566C10.4157 0.252482 9.57628 0.118955 9.23146 0.0746173C8.48811 -0.0210172 7.41883 -0.0112217 6.64338 0.0292489L6.64284 0.0289912ZM1.92078 9.90872C1.90945 9.89352 1.92078 9.59166 1.92078 9.53521C1.92078 9.46638 1.76618 9.21093 1.76186 9.19263C1.44995 7.88725 0.920033 5.73484 1.19174 4.38358C1.47693 2.96453 2.7734 2.31777 3.87695 2.96633C5.11379 3.69326 4.87392 6.93658 3.82245 7.82461C3.78413 7.90375 2.98062 8.67089 2.70838 8.98641C2.53758 9.18438 1.96206 9.9626 1.92105 9.90847L1.92078 9.90872Z" fill="#E7E1E1"/>
</svg>
