<svg width="373" height="380" viewBox="0 0 373 380" fill="none" xmlns="http://www.w3.org/2000/svg">
<path d="M335.783 348.033C376.186 270.366 361.393 227.659 362.317 220.799C362.475 219.62 364.023 217.633 364.084 217.237C365.149 209.955 360.285 201.538 359.151 195.083C354.349 167.81 366.107 144.592 370.223 118.366C373.838 95.2009 374.594 65.5802 360.751 45.6864C347.12 26.0917 318.819 19.865 297.791 32.3711C296.903 32.8988 295.601 33.9014 293.64 35.2998C293.798 31.2806 294.519 27.1382 295.601 23.5676C295.856 22.7409 295.469 21.7207 295.847 20.9995C297.597 17.6575 302.223 13.2513 298.398 7.48195C296.058 3.94645 269.42 1.61584 264.275 1.33441C255.823 0.877078 245.252 0.648414 235.525 1.02659V378.357C283.473 382.702 350.681 373.705 335.792 348.024L335.783 348.033ZM328.959 155.48C324.482 150.054 311.273 136.853 310.649 135.49C293.358 120.213 289.419 64.4017 309.752 51.8867C327.895 40.7262 349.204 51.8515 353.891 76.2746C358.359 99.5279 349.644 136.563 344.516 159.025C344.446 159.341 341.904 163.738 341.904 164.917C341.904 165.884 342.089 171.082 341.904 171.346C341.227 172.278 331.764 158.884 328.959 155.48Z" fill="#C1272D"/>
<path d="M257.264 164.96C257.259 164.96 257.255 164.956 257.255 164.951C257.255 164.946 257.251 164.942 257.246 164.942C255.821 165.038 254.442 165.506 253.249 166.303C251.902 167.203 250.853 168.482 250.233 169.978C249.613 171.475 249.451 173.121 249.767 174.71C249.906 175.409 250.135 176.084 250.445 176.717C251.102 178.056 251.153 179.758 250.099 180.812C249.045 181.866 247.309 181.877 246.484 180.635C245.506 179.165 244.82 177.511 244.472 175.763C243.948 173.127 244.217 170.395 245.245 167.913C246.274 165.43 248.015 163.308 250.25 161.815C252.332 160.424 254.755 159.637 257.25 159.536C257.253 159.536 257.255 159.533 257.255 159.53C257.255 159.527 257.258 159.525 257.261 159.525H301.279C302.78 159.525 303.997 160.741 303.997 162.242C303.997 163.743 302.78 164.96 301.279 164.96H257.264Z" fill="#E7E1E1"/>
<path d="M279.538 231.267C281.292 233.606 282.257 236.463 282.257 239.42C282.257 243.024 280.825 246.48 278.277 249.028C277.819 249.486 277.332 249.906 276.82 250.29C277.332 250.674 277.819 251.095 278.277 251.552C280.825 254.101 282.257 257.557 282.257 261.16C282.257 264.764 280.825 268.22 278.277 270.768C275.772 273.273 272.389 274.698 268.851 274.746C268.851 274.746 268.85 274.746 268.85 274.747C268.85 274.747 268.85 274.748 268.849 274.748H246.929C245.428 274.748 244.211 273.531 244.211 272.03C244.211 270.53 245.428 269.313 246.929 269.313H268.833C268.842 269.313 268.85 269.321 268.85 269.33C268.85 269.34 268.858 269.347 268.868 269.347C270.968 269.296 272.971 268.44 274.46 266.951C275.995 265.415 276.858 263.332 276.858 261.16C276.858 258.988 275.995 256.905 274.46 255.37C273.068 253.978 271.227 253.139 269.277 252.994C269.135 253 268.993 253.004 268.851 253.006C268.851 253.006 268.85 253.006 268.85 253.007C268.85 253.007 268.85 253.008 268.849 253.008H246.929C245.428 253.008 244.211 251.791 244.211 250.29C244.211 248.789 245.428 247.573 246.929 247.573H268.849C268.85 247.573 268.85 247.573 268.85 247.574C268.85 247.574 268.851 247.575 268.851 247.575C268.993 247.577 269.135 247.58 269.277 247.587C271.227 247.442 273.068 246.603 274.46 245.211C275.995 243.675 276.858 241.592 276.858 239.42C276.858 237.248 275.995 235.165 274.46 233.629C273.107 232.277 271.33 231.446 269.442 231.267H246.929C245.428 231.267 244.211 230.051 244.211 228.55C244.211 227.049 245.428 225.832 246.929 225.832H279.539C281.04 225.832 282.257 227.049 282.257 228.55C282.257 230.051 281.039 231.267 279.538 231.267Z" fill="#E7E1E1"/>
<path d="M279.538 285.618C281.292 287.956 282.257 290.814 282.257 293.771C282.257 297.374 280.825 300.831 278.277 303.379C277.819 303.836 277.332 304.257 276.82 304.641C277.332 305.025 277.819 305.446 278.277 305.903C280.825 308.451 282.257 311.907 282.257 315.511C282.257 319.115 280.825 322.571 278.277 325.119C275.772 327.624 272.389 329.049 268.851 329.097C268.851 329.097 268.85 329.097 268.85 329.098C268.85 329.098 268.85 329.099 268.849 329.099H246.929C245.428 329.099 244.211 327.882 244.211 326.381C244.211 324.88 245.428 323.664 246.929 323.664H268.833C268.842 323.664 268.85 323.671 268.85 323.681C268.85 323.69 268.858 323.698 268.868 323.698C270.968 323.647 272.971 322.791 274.46 321.302C275.995 319.766 276.858 317.683 276.858 315.511C276.858 313.339 275.995 311.256 274.46 309.72C273.068 308.329 271.227 307.489 269.277 307.344C269.135 307.351 268.993 307.354 268.851 307.356C268.851 307.356 268.85 307.357 268.85 307.357C268.85 307.358 268.85 307.358 268.849 307.358H246.929C245.428 307.358 244.211 306.142 244.211 304.641C244.211 303.14 245.428 301.923 246.929 301.923H268.849C268.85 301.923 268.85 301.924 268.85 301.924C268.85 301.925 268.851 301.925 268.851 301.925C268.993 301.927 269.135 301.931 269.277 301.938C271.227 301.792 273.068 300.953 274.46 299.561C275.995 298.026 276.858 295.943 276.858 293.771C276.858 291.599 275.995 289.516 274.46 287.98C273.107 286.628 271.33 285.797 269.442 285.618H246.929C245.428 285.618 244.211 284.401 244.211 282.901C244.211 281.4 245.428 280.183 246.929 280.183H279.539C281.04 280.183 282.257 281.4 282.257 282.901C282.257 284.401 281.039 285.618 279.538 285.618Z" fill="#E7E1E1"/>
<path d="M260.516 137.784V145.937C260.516 147.438 261.733 148.655 263.234 148.655C264.735 148.655 265.951 147.438 265.951 145.937V137.784H290.944C290.949 137.784 290.953 137.78 290.953 137.776C290.953 137.77 290.957 137.766 290.962 137.767C292.387 137.863 293.766 138.331 294.959 139.128C296.306 140.027 297.355 141.307 297.975 142.803C298.595 144.299 298.757 145.946 298.441 147.535C298.302 148.234 298.073 148.908 297.762 149.542C297.106 150.88 297.054 152.582 298.109 153.636C299.163 154.69 300.899 154.701 301.724 153.46C302.702 151.99 303.388 150.336 303.736 148.588C304.26 145.952 303.991 143.22 302.963 140.737C301.934 138.254 300.193 136.132 297.958 134.639C295.876 133.248 293.453 132.461 290.958 132.361C290.955 132.36 290.953 132.358 290.953 132.355C290.953 132.352 290.95 132.349 290.947 132.349H265.951V129.632C265.951 128.131 264.735 126.914 263.234 126.914C261.733 126.914 260.516 128.131 260.516 129.632V132.349H246.929C245.428 132.349 244.211 133.566 244.211 135.067C244.211 136.568 245.428 137.784 246.929 137.784H260.516Z" fill="#E7E1E1"/>
<path fill-rule="evenodd" clip-rule="evenodd" d="M246.929 220.397C245.428 220.397 244.211 219.181 244.211 217.68C244.211 216.179 245.428 214.962 246.929 214.962H249.921C248.091 213.169 246.633 211.017 245.647 208.626C244.211 205.143 243.842 201.312 244.586 197.618C245.33 193.925 247.154 190.535 249.826 187.88C252.499 185.225 255.9 183.423 259.598 182.703C263.296 181.983 267.125 182.377 270.599 183.836C274.073 185.294 277.035 187.751 279.11 190.896C281.13 193.955 282.221 197.532 282.256 201.193C282.256 201.193 282.256 201.193 282.256 201.193C282.256 201.193 282.257 201.194 282.257 201.194V215.397C282.257 218.159 280.018 220.397 277.257 220.397H246.929ZM276.826 201.193C276.829 201.193 276.831 201.191 276.831 201.189C276.795 198.591 276.016 196.056 274.583 193.884C273.1 191.636 270.982 189.88 268.499 188.837C266.016 187.794 263.278 187.513 260.635 188.027C257.991 188.542 255.56 189.83 253.65 191.728C251.739 193.626 250.435 196.049 249.903 198.689C249.372 201.329 249.636 204.068 250.662 206.558C251.689 209.048 253.432 211.177 255.67 212.675C257.762 214.075 260.198 214.865 262.707 214.962H271.822C274.583 214.962 276.822 212.724 276.822 209.962V201.198C276.822 201.195 276.824 201.193 276.826 201.193Z" fill="#E7E1E1"/>
<path fill-rule="evenodd" clip-rule="evenodd" d="M280.01 343.14C282.085 347.021 282.75 351.502 281.891 355.818C281.032 360.135 278.704 364.02 275.302 366.812C272.137 369.409 268.224 370.91 264.151 371.107C264.145 371.107 264.14 371.112 264.14 371.118C264.14 371.125 264.135 371.13 264.128 371.13H262.328C261.327 371.13 260.516 370.319 260.516 369.318V338.778C260.103 338.862 259.692 338.965 259.285 339.089C256.273 340.002 253.671 341.932 251.922 344.549C250.174 347.166 249.387 350.308 249.695 353.44C249.915 355.667 250.678 357.792 251.901 359.633C252.729 360.88 252.757 362.584 251.699 363.642C250.64 364.7 248.907 364.71 248.01 363.513C245.936 360.744 244.645 357.448 244.303 353.971C243.871 349.592 244.972 345.198 247.417 341.539C249.862 337.879 253.5 335.181 257.712 333.903C261.923 332.626 266.448 332.848 270.514 334.532C274.58 336.216 277.936 339.258 280.01 343.14ZM276.576 354.761C277.19 351.674 276.715 348.47 275.232 345.694C273.748 342.919 271.348 340.743 268.44 339.538C267.632 339.204 266.798 338.95 265.951 338.777V365.436C268.109 364.996 270.141 364.037 271.864 362.623C274.297 360.626 275.962 357.848 276.576 354.761Z" fill="#E7E1E1"/>
<path fill-rule="evenodd" clip-rule="evenodd" d="M281.454 69.7642C282.16 71.1933 282.409 72.8054 282.166 74.381C281.924 75.9566 281.201 77.4193 280.097 78.5695C278.993 79.7196 277.561 80.5015 275.997 80.8087C274.433 81.1158 272.812 80.9333 271.355 80.286C270.046 79.7047 268.928 78.7735 268.119 77.5998C267.622 76.8625 267.325 75.9511 266.954 75.1488L258.055 83.882L265.636 90.3863C266.433 91.0704 266.525 92.2714 265.841 93.0688C265.157 93.8662 263.956 93.958 263.158 93.2738L255.329 86.5567L248.557 93.2029C247.807 93.9387 246.603 93.9273 245.867 93.1776C245.131 92.4278 245.143 91.2234 245.892 90.4876L252.432 84.0703C252.432 84.0703 249.867 81.9261 248.228 80.3269C246.589 78.7277 245.388 76.7317 244.745 74.5298C244.069 72.2146 244.034 69.7591 244.645 67.4257C245.255 65.0923 246.488 62.9684 248.212 61.2812C249.899 59.6292 251.995 58.4567 254.284 57.882C256.475 57.4708 258.917 57.9677 260.893 58.9419C262.869 59.916 264.52 61.4401 265.647 63.3288C266.775 65.2176 268.144 68.6511 268.144 68.6511C268.144 68.6511 268.862 67.8554 269.393 67.4247C270.807 66.2789 273.21 65.5432 273.634 65.4954C275.218 65.3167 276.819 65.6307 278.218 66.3946C279.617 67.1584 280.747 68.3351 281.454 69.7642ZM262.447 65.4238C261.696 64.1041 260.566 63.0399 259.204 62.3685C257.867 61.7093 256.366 61.4588 254.888 61.647C253.376 62.0831 251.993 62.8879 250.865 63.9919C249.633 65.1986 248.751 66.7173 248.314 68.386C247.878 70.0547 247.902 71.8108 248.386 73.4665C248.869 75.1223 249.794 76.6156 251.06 77.787C252.326 78.9584 255.157 81.3957 255.157 81.3957L265.26 71.481C265.26 71.481 263.198 66.7436 262.447 65.4238ZM278.406 73.8016C278.529 72.9992 278.403 72.1781 278.043 71.4503C277.683 70.7225 277.108 70.1232 276.395 69.7342C275.682 69.3452 274.867 69.1855 274.06 69.2765C273.343 69.3574 272.664 69.6333 272.095 70.0713C271.526 70.5093 269.838 72.3189 269.838 72.3189C269.838 72.3189 270.925 75.0025 271.33 75.5491C271.735 76.0957 272.274 76.531 272.9 76.8089C273.642 77.1386 274.467 77.2313 275.264 77.0749C276.061 76.9185 276.79 76.5203 277.352 75.9345C277.914 75.3488 278.282 74.604 278.406 73.8016Z" fill="#E7E1E1"/>
<path d="M186.734 79.3378C186.529 79.1087 186.331 78.8737 186.138 78.6331C184.563 76.6661 183.447 74.3717 182.873 71.9181C182.513 70.3783 182.372 68.8 182.45 67.2296C182.527 65.6822 184.048 64.721 185.561 65.0525C187.075 65.384 187.996 66.8911 188.046 68.4399C188.071 69.1791 188.168 69.9164 188.337 70.641C188.721 72.2803 189.466 73.8134 190.518 75.1276C191.571 76.4419 192.904 77.5042 194.421 78.237C195.731 78.8703 197.15 79.2427 198.598 79.3378H219.067C220.622 79.3378 221.884 80.599 221.884 82.1548C221.884 83.7106 220.622 84.9718 219.067 84.9718H185.246C183.69 84.9718 182.429 83.7106 182.429 82.1548C182.429 80.599 183.69 79.3378 185.246 79.3378H186.734Z" fill="#C1272D"/>
<path d="M186.734 55.2989C186.529 55.0699 186.331 54.8348 186.138 54.5943C184.563 52.6273 183.447 50.3329 182.873 47.8793C182.513 46.3394 182.372 44.7612 182.45 43.1908C182.527 41.6434 184.048 40.6822 185.561 41.0137C187.075 41.3452 187.996 42.8523 188.046 44.4011C188.071 45.1403 188.168 45.8775 188.337 46.6021C188.721 48.2415 189.466 49.7746 190.518 51.0888C191.571 52.403 192.904 53.4654 194.421 54.1982C195.731 54.8315 197.15 55.2039 198.598 55.2989H219.067C220.622 55.2989 221.884 56.5602 221.884 58.116C221.884 59.6718 220.622 60.933 219.067 60.933H185.246C183.69 60.933 182.429 59.6718 182.429 58.116C182.429 56.5602 183.69 55.2989 185.246 55.2989H186.734Z" fill="#C1272D"/>
<path d="M176.793 146.195V137.745C176.793 136.188 178.055 134.927 179.611 134.927C181.168 134.927 182.429 136.188 182.429 137.745V146.195H208.347C208.352 146.195 208.357 146.199 208.357 146.204C208.357 146.209 208.361 146.213 208.366 146.213C209.844 146.113 211.274 145.629 212.511 144.802C213.908 143.87 214.996 142.544 215.639 140.992C216.282 139.441 216.45 137.734 216.122 136.088C215.978 135.363 215.741 134.664 215.419 134.008C214.739 132.62 214.685 130.855 215.778 129.762C216.871 128.669 218.671 128.658 219.527 129.945C220.54 131.469 221.252 133.183 221.613 134.996C222.157 137.728 221.878 140.56 220.811 143.134C219.745 145.707 217.939 147.907 215.621 149.455C213.462 150.897 210.95 151.713 208.362 151.817C208.359 151.817 208.357 151.82 208.357 151.823C208.357 151.826 208.354 151.829 208.351 151.829H182.429V154.645C182.429 156.201 181.168 157.463 179.611 157.463C178.055 157.463 176.793 156.201 176.793 154.645V151.829H162.701C161.145 151.829 159.884 150.568 159.884 149.012C159.884 147.456 161.145 146.195 162.701 146.195H176.793Z" fill="#C1272D"/>
<path fill-rule="evenodd" clip-rule="evenodd" d="M184.758 118.118C182.607 114.095 181.918 109.45 182.808 104.975C183.698 100.501 186.113 96.4736 189.641 93.5794C192.924 90.8867 196.981 89.3307 201.206 89.127C201.212 89.1267 201.217 89.1215 201.217 89.1152C201.217 89.1086 201.222 89.1034 201.229 89.1034H203.096C204.133 89.1034 204.974 89.9445 204.974 90.9821V122.639C205.403 122.552 205.83 122.445 206.251 122.317C209.375 121.37 212.073 119.37 213.887 116.657C215.7 113.945 216.516 110.687 216.196 107.44C215.969 105.132 215.177 102.931 213.909 101.022C213.051 99.729 213.022 97.9611 214.12 96.864C215.217 95.7676 217.014 95.7575 217.944 96.9985C220.095 99.8683 221.433 103.286 221.789 106.89C222.236 111.43 221.095 115.984 218.559 119.778C216.023 123.571 212.25 126.368 207.883 127.692C203.515 129.017 198.824 128.787 194.607 127.041C190.39 125.295 186.91 122.141 184.758 118.118ZM188.32 106.071C187.683 109.271 188.176 112.593 189.714 115.47C191.253 118.347 193.742 120.603 196.757 121.851C197.595 122.198 198.46 122.461 199.338 122.64V95.0055C197.101 95.4615 194.993 96.4558 193.206 97.9216C190.683 99.9913 188.956 102.871 188.32 106.071Z" fill="#C1272D"/>
<path fill-rule="evenodd" clip-rule="evenodd" d="M184.758 29.8508C182.607 25.8274 181.918 21.1828 182.808 16.7084C183.698 12.2339 186.113 8.20649 189.641 5.31231C192.924 2.61958 196.981 1.06357 201.206 0.859909C201.212 0.859604 201.217 0.854404 201.217 0.848091C201.217 0.841557 201.222 0.836262 201.229 0.836262H203.096C204.133 0.836262 204.974 1.67742 204.974 2.71505V34.3724C205.403 34.2849 205.83 34.1782 206.251 34.0503C209.375 33.1032 212.073 31.1029 213.887 28.3902C215.7 25.6775 216.516 22.4201 216.196 19.1733C215.969 16.865 215.177 14.6635 213.909 12.7546C213.051 11.4619 213.022 9.69399 214.12 8.59691C215.217 7.50048 217.014 7.49042 217.944 8.73141C220.095 11.6012 221.433 15.0189 221.789 18.6227C222.236 23.1628 221.095 27.7174 218.559 31.5106C216.023 35.3038 212.25 38.1011 207.883 39.4254C203.515 40.7497 198.824 40.5194 194.607 38.7736C190.39 37.0277 186.91 33.8743 184.758 29.8508ZM188.32 17.804C187.683 21.0039 188.176 24.3256 189.714 27.2029C191.253 30.0802 193.742 32.3356 196.757 33.5841C197.595 33.9311 198.46 34.1941 199.338 34.3731V6.73843C197.101 7.19439 194.993 8.18875 193.206 9.65448C190.683 11.7242 188.956 14.6042 188.32 17.804Z" fill="#C1272D"/>
<path d="M193.811 363.128C193.747 363.416 193.715 363.832 193.715 364.376C193.715 367 195.363 368.312 198.659 368.312C199.971 368.312 201.155 368.12 202.211 367.736C203.299 367.352 204.355 366.728 205.379 365.864L207.539 368.216C206.355 369.368 205.027 370.216 203.555 370.76C202.083 371.304 200.403 371.576 198.515 371.576C195.539 371.576 193.283 371.032 191.747 369.944C190.211 368.856 189.443 367.224 189.443 365.048C189.443 364.344 189.507 363.688 189.635 363.08L190.883 355.928C191.331 353.432 192.451 351.48 194.243 350.072C196.067 348.664 198.403 347.96 201.251 347.96C203.971 347.96 206.115 348.6 207.683 349.88C209.251 351.128 210.035 352.872 210.035 355.112C210.035 357.416 209.571 359.08 208.643 360.104C207.715 361.128 206.211 361.64 204.131 361.64H194.051L193.811 363.128ZM201.155 351.224C199.491 351.224 198.115 351.672 197.027 352.568C195.971 353.432 195.299 354.648 195.011 356.216L194.579 358.616H202.739C203.827 358.616 204.611 358.36 205.091 357.848C205.571 357.336 205.811 356.44 205.811 355.16C205.811 353.912 205.395 352.952 204.563 352.28C203.763 351.576 202.627 351.224 201.155 351.224Z" fill="#E7E1E1"/>
<path d="M180.947 371.576C180.019 370.968 179.331 370.328 178.883 369.656C178.435 368.984 178.211 368.2 178.211 367.304C178.211 366.92 178.259 366.488 178.355 366.008L182.675 341.432C182.739 341.048 182.771 340.792 182.771 340.664C182.771 340.248 182.659 339.864 182.435 339.512C182.243 339.16 181.923 338.776 181.475 338.36L184.307 335.864C185.235 336.472 185.907 337.112 186.323 337.784C186.771 338.456 186.995 339.24 186.995 340.136C186.995 340.712 186.963 341.144 186.899 341.432L182.579 366.008C182.515 366.392 182.483 366.648 182.483 366.776C182.483 367.192 182.579 367.576 182.771 367.928C182.995 368.28 183.331 368.664 183.779 369.08L180.947 371.576Z" fill="#E7E1E1"/>
<path d="M171.886 366.008C171.822 366.392 171.79 366.664 171.79 366.824C171.79 367.24 171.886 367.608 172.078 367.928C172.302 368.248 172.638 368.632 173.086 369.08L170.254 371.576C169.422 371.032 168.782 370.472 168.334 369.896C167.918 369.32 167.662 368.664 167.566 367.928C166.67 369.048 165.534 369.944 164.158 370.616C162.782 371.256 161.198 371.576 159.406 371.576C157.23 371.576 155.534 371.08 154.318 370.088C153.134 369.096 152.542 367.72 152.542 365.96C152.542 363.368 153.406 361.464 155.134 360.248C156.894 359.032 159.342 358.264 162.478 357.944L165.838 357.56C167.246 357.4 168.19 357.144 168.67 356.792C169.182 356.44 169.486 355.816 169.582 354.92V355.016C169.646 353.736 169.294 352.744 168.526 352.04C167.79 351.336 166.702 350.984 165.262 350.984C163.598 350.984 162.286 351.192 161.326 351.608C160.366 352.024 159.374 352.728 158.35 353.72L155.854 351.656C156.974 350.376 158.286 349.448 159.79 348.872C161.294 348.264 163.214 347.96 165.55 347.96C168.174 347.96 170.206 348.52 171.646 349.64C173.086 350.76 173.806 352.296 173.806 354.248C173.806 354.76 173.758 355.288 173.662 355.832L171.886 366.008ZM160.51 368.456C162.59 368.456 164.318 367.928 165.694 366.872C167.102 365.816 167.95 364.472 168.238 362.84L168.814 359.624C168.11 359.976 166.91 360.248 165.214 360.44L162.334 360.728C160.542 360.888 159.15 361.4 158.158 362.264C157.166 363.096 156.67 364.216 156.67 365.624C156.67 366.552 156.99 367.256 157.63 367.736C158.302 368.216 159.262 368.456 160.51 368.456Z" fill="#E7E1E1"/>
<path d="M142.327 347.96C144.279 347.96 145.815 348.488 146.935 349.544C148.055 350.568 148.615 352.008 148.615 353.864C148.615 354.408 148.567 355 148.471 355.64L145.735 371.048H141.559L144.151 356.168C144.215 355.848 144.247 355.416 144.247 354.872C144.247 353.72 143.943 352.84 143.335 352.232C142.727 351.592 141.847 351.272 140.695 351.272C139.063 351.272 137.639 351.832 136.423 352.952C135.207 354.04 134.199 355.416 133.399 357.08L130.903 371.048H126.679L129.751 353.528C129.815 353.144 129.847 352.888 129.847 352.76C129.847 352.344 129.735 351.96 129.511 351.608C129.319 351.224 128.999 350.824 128.551 350.408L131.431 347.96C132.455 348.536 133.175 349.16 133.591 349.832C134.007 350.504 134.199 351.336 134.167 352.328C135.127 351.016 136.279 349.96 137.623 349.16C138.999 348.36 140.567 347.96 142.327 347.96Z" fill="#E7E1E1"/>
<path d="M120.605 366.008C120.541 366.392 120.509 366.664 120.509 366.824C120.509 367.24 120.605 367.608 120.797 367.928C121.021 368.248 121.357 368.632 121.805 369.08L118.973 371.576C118.141 371.032 117.501 370.472 117.053 369.896C116.637 369.32 116.381 368.664 116.285 367.928C115.389 369.048 114.253 369.944 112.877 370.616C111.501 371.256 109.917 371.576 108.125 371.576C105.949 371.576 104.253 371.08 103.037 370.088C101.853 369.096 101.261 367.72 101.261 365.96C101.261 363.368 102.125 361.464 103.853 360.248C105.613 359.032 108.061 358.264 111.197 357.944L114.557 357.56C115.965 357.4 116.909 357.144 117.389 356.792C117.901 356.44 118.205 355.816 118.301 354.92V355.016C118.365 353.736 118.013 352.744 117.245 352.04C116.509 351.336 115.421 350.984 113.981 350.984C112.317 350.984 111.005 351.192 110.045 351.608C109.085 352.024 108.093 352.728 107.069 353.72L104.573 351.656C105.693 350.376 107.005 349.448 108.509 348.872C110.013 348.264 111.933 347.96 114.269 347.96C116.893 347.96 118.925 348.52 120.365 349.64C121.805 350.76 122.525 352.296 122.525 354.248C122.525 354.76 122.477 355.288 122.381 355.832L120.605 366.008ZM109.229 368.456C111.309 368.456 113.037 367.928 114.413 366.872C115.821 365.816 116.669 364.472 116.957 362.84L117.533 359.624C116.829 359.976 115.629 360.248 113.933 360.44L111.053 360.728C109.261 360.888 107.869 361.4 106.877 362.264C105.885 363.096 105.389 364.216 105.389 365.624C105.389 366.552 105.709 367.256 106.349 367.736C107.021 368.216 107.981 368.456 109.229 368.456Z" fill="#E7E1E1"/>
<path d="M87.6544 371.576C85.4464 371.576 83.6864 371.256 82.3744 370.616C81.0624 369.976 80.0064 368.968 79.2064 367.592L82.3264 365.288C82.9984 366.408 83.7344 367.192 84.5344 367.64C85.3344 368.056 86.4224 368.264 87.7984 368.264C89.6544 368.264 91.0784 367.928 92.0704 367.256C93.0944 366.552 93.6064 365.608 93.6064 364.424C93.6064 363.56 93.1584 362.904 92.2624 362.456C91.3664 362.008 89.8464 361.592 87.7024 361.208C85.7184 360.824 84.2784 360.184 83.3824 359.288C82.4864 358.36 82.0384 357.176 82.0384 355.736C82.0384 354.232 82.4224 352.888 83.1904 351.704C83.9584 350.52 85.0464 349.608 86.4544 348.968C87.8944 348.296 89.5584 347.96 91.4464 347.96C95.5424 347.96 98.1344 349.192 99.2224 351.656L96.1984 353.912C95.5904 352.984 94.8704 352.312 94.0384 351.896C93.2384 351.48 92.2304 351.272 91.0144 351.272C89.5744 351.272 88.3904 351.64 87.4624 352.376C86.5664 353.08 86.1184 353.976 86.1184 355.064C86.1184 355.832 86.4544 356.424 87.1264 356.84C87.8304 357.256 88.8384 357.608 90.1504 357.896C92.8704 358.472 94.8064 359.176 95.9584 360.008C97.1104 360.84 97.6864 362.136 97.6864 363.896C97.6864 366.328 96.8224 368.216 95.0944 369.56C93.3984 370.904 90.9184 371.576 87.6544 371.576Z" fill="#E7E1E1"/>
<path d="M75.2806 344.072C74.6406 344.072 74.0966 343.864 73.6486 343.448C73.2326 343.032 73.0246 342.504 73.0246 341.864C73.0246 341.064 73.3446 340.344 73.9846 339.704C74.6566 339.032 75.4086 338.696 76.2406 338.696C76.8806 338.696 77.4086 338.92 77.8246 339.368C78.2406 339.784 78.4486 340.312 78.4486 340.952C78.4486 341.752 78.1126 342.472 77.4406 343.112C76.8006 343.752 76.0806 344.072 75.2806 344.072ZM71.9206 371.576C70.9606 370.936 70.2566 370.28 69.8086 369.608C69.3926 368.936 69.1846 368.152 69.1846 367.256C69.1846 366.712 69.2166 366.296 69.2806 366.008L72.4006 348.488H76.6246L73.5046 366.008C73.4726 366.168 73.4566 366.392 73.4566 366.68C73.4566 367.128 73.5526 367.544 73.7446 367.928C73.9686 368.28 74.3046 368.664 74.7526 369.08L71.9206 371.576Z" fill="#E7E1E1"/>
<path d="M57.8495 363.896C57.7535 364.376 57.7055 364.824 57.7055 365.24C57.7055 367.032 58.6495 367.928 60.5375 367.928H63.5615L62.9855 371.24H59.9615C57.7855 371.24 56.1535 370.824 55.0655 369.992C53.9775 369.16 53.4335 367.832 53.4335 366.008C53.4335 365.272 53.4975 364.568 53.6255 363.896L57.1775 343.832C57.2095 343.672 57.2255 343.448 57.2255 343.16C57.2255 342.712 57.1295 342.296 56.9375 341.912C56.7455 341.528 56.4095 341.128 55.9295 340.712L58.8095 338.264C59.7695 338.808 60.4575 339.416 60.8735 340.088C61.3215 340.728 61.5455 341.496 61.5455 342.392C61.5455 342.808 61.4975 343.288 61.4015 343.832L60.5855 348.488H67.0175L66.3935 351.8H60.0095L57.8495 363.896Z" fill="#E7E1E1"/>
<path d="M49.0756 347.96C49.7476 347.96 50.4196 348.04 51.0916 348.2C51.7956 348.36 52.3556 348.616 52.7716 348.968L51.0436 352.664C50.1476 352.024 49.0596 351.704 47.7796 351.704C46.1796 351.704 44.7716 352.36 43.5556 353.672C42.3716 354.952 41.3796 356.552 40.5796 358.472L38.3716 371.048H34.1476L37.2196 353.528C37.2836 353.144 37.3156 352.888 37.3156 352.76C37.3156 352.344 37.2036 351.96 36.9796 351.608C36.7876 351.224 36.4676 350.824 36.0196 350.408L38.8996 347.96C39.8596 348.504 40.5476 349.096 40.9636 349.736C41.3796 350.344 41.5876 351.096 41.5876 351.992C41.5876 352.344 41.5716 352.632 41.5396 352.856C43.4916 349.592 46.0036 347.96 49.0756 347.96Z" fill="#E7E1E1"/>
<path d="M28.074 366.008C28.01 366.392 27.978 366.664 27.978 366.824C27.978 367.24 28.074 367.608 28.266 367.928C28.49 368.248 28.826 368.632 29.274 369.08L26.442 371.576C25.61 371.032 24.97 370.472 24.522 369.896C24.106 369.32 23.85 368.664 23.754 367.928C22.858 369.048 21.722 369.944 20.346 370.616C18.97 371.256 17.386 371.576 15.594 371.576C13.418 371.576 11.722 371.08 10.506 370.088C9.32198 369.096 8.72998 367.72 8.72998 365.96C8.72998 363.368 9.59398 361.464 11.322 360.248C13.082 359.032 15.53 358.264 18.666 357.944L22.026 357.56C23.434 357.4 24.378 357.144 24.858 356.792C25.37 356.44 25.674 355.816 25.77 354.92V355.016C25.834 353.736 25.482 352.744 24.714 352.04C23.978 351.336 22.89 350.984 21.45 350.984C19.786 350.984 18.474 351.192 17.514 351.608C16.554 352.024 15.562 352.728 14.538 353.72L12.042 351.656C13.162 350.376 14.474 349.448 15.978 348.872C17.482 348.264 19.402 347.96 21.738 347.96C24.362 347.96 26.394 348.52 27.834 349.64C29.274 350.76 29.994 352.296 29.994 354.248C29.994 354.76 29.946 355.288 29.85 355.832L28.074 366.008ZM16.698 368.456C18.778 368.456 20.506 367.928 21.882 366.872C23.29 365.816 24.138 364.472 24.426 362.84L25.002 359.624C24.298 359.976 23.098 360.248 21.402 360.44L18.522 360.728C16.73 360.888 15.338 361.4 14.346 362.264C13.354 363.096 12.858 364.216 12.858 365.624C12.858 366.552 13.178 367.256 13.818 367.736C14.49 368.216 15.45 368.456 16.698 368.456Z" fill="#E7E1E1"/>
<path d="M193.811 308.128C193.747 308.416 193.715 308.832 193.715 309.376C193.715 312 195.363 313.312 198.659 313.312C199.971 313.312 201.155 313.12 202.211 312.736C203.299 312.352 204.355 311.728 205.379 310.864L207.539 313.216C206.355 314.368 205.027 315.216 203.555 315.76C202.083 316.304 200.403 316.576 198.515 316.576C195.539 316.576 193.283 316.032 191.747 314.944C190.211 313.856 189.443 312.224 189.443 310.048C189.443 309.344 189.507 308.688 189.635 308.08L190.883 300.928C191.331 298.432 192.451 296.48 194.243 295.072C196.067 293.664 198.403 292.96 201.251 292.96C203.971 292.96 206.115 293.6 207.683 294.88C209.251 296.128 210.035 297.872 210.035 300.112C210.035 302.416 209.571 304.08 208.643 305.104C207.715 306.128 206.211 306.64 204.131 306.64H194.051L193.811 308.128ZM201.155 296.224C199.491 296.224 198.115 296.672 197.027 297.568C195.971 298.432 195.299 299.648 195.011 301.216L194.579 303.616H202.739C203.827 303.616 204.611 303.36 205.091 302.848C205.571 302.336 205.811 301.44 205.811 300.16C205.811 298.912 205.395 297.952 204.563 297.28C203.763 296.576 202.627 296.224 201.155 296.224Z" fill="#E7E1E1"/>
<path d="M184.077 289.072C183.437 289.072 182.893 288.864 182.445 288.448C182.029 288.032 181.821 287.504 181.821 286.864C181.821 286.064 182.141 285.344 182.781 284.704C183.453 284.032 184.205 283.696 185.037 283.696C185.677 283.696 186.205 283.92 186.621 284.368C187.037 284.784 187.245 285.312 187.245 285.952C187.245 286.752 186.909 287.472 186.237 288.112C185.597 288.752 184.877 289.072 184.077 289.072ZM180.717 316.576C179.757 315.936 179.053 315.28 178.605 314.608C178.189 313.936 177.981 313.152 177.981 312.256C177.981 311.712 178.013 311.296 178.077 311.008L181.197 293.488H185.421L182.301 311.008C182.269 311.168 182.253 311.392 182.253 311.68C182.253 312.128 182.349 312.544 182.541 312.928C182.765 313.28 183.101 313.664 183.549 314.08L180.717 316.576Z" fill="#E7E1E1"/>
<path d="M172.872 292.96C173.544 292.96 174.216 293.04 174.888 293.2C175.592 293.36 176.152 293.616 176.568 293.968L174.84 297.664C173.944 297.024 172.856 296.704 171.576 296.704C169.976 296.704 168.568 297.36 167.352 298.672C166.168 299.952 165.176 301.552 164.376 303.472L162.168 316.048H157.944L161.016 298.528C161.08 298.144 161.112 297.888 161.112 297.76C161.112 297.344 161 296.96 160.776 296.608C160.584 296.224 160.264 295.824 159.816 295.408L162.696 292.96C163.656 293.504 164.344 294.096 164.76 294.736C165.176 295.344 165.384 296.096 165.384 296.992C165.384 297.344 165.368 297.632 165.336 297.856C167.288 294.592 169.8 292.96 172.872 292.96Z" fill="#E7E1E1"/>
<path d="M138.686 308.128C138.622 308.416 138.59 308.832 138.59 309.376C138.59 312 140.238 313.312 143.534 313.312C144.846 313.312 146.03 313.12 147.086 312.736C148.174 312.352 149.23 311.728 150.254 310.864L152.414 313.216C151.23 314.368 149.902 315.216 148.43 315.76C146.958 316.304 145.278 316.576 143.39 316.576C140.414 316.576 138.158 316.032 136.622 314.944C135.086 313.856 134.318 312.224 134.318 310.048C134.318 309.344 134.382 308.688 134.51 308.08L135.758 300.928C136.206 298.432 137.326 296.48 139.118 295.072C140.942 293.664 143.278 292.96 146.126 292.96C148.846 292.96 150.99 293.6 152.558 294.88C154.126 296.128 154.91 297.872 154.91 300.112C154.91 302.416 154.446 304.08 153.518 305.104C152.59 306.128 151.086 306.64 149.006 306.64H138.926L138.686 308.128ZM146.03 296.224C144.366 296.224 142.99 296.672 141.902 297.568C140.846 298.432 140.174 299.648 139.886 301.216L139.454 303.616H147.614C148.702 303.616 149.486 303.36 149.966 302.848C150.446 302.336 150.686 301.44 150.686 300.16C150.686 298.912 150.27 297.952 149.438 297.28C148.638 296.576 147.502 296.224 146.03 296.224Z" fill="#E7E1E1"/>
<path d="M123.709 308.896C123.613 309.376 123.565 309.824 123.565 310.24C123.565 312.032 124.509 312.928 126.397 312.928H129.421L128.845 316.24H125.821C123.645 316.24 122.013 315.824 120.925 314.992C119.837 314.16 119.293 312.832 119.293 311.008C119.293 310.272 119.357 309.568 119.485 308.896L123.037 288.832C123.069 288.672 123.085 288.448 123.085 288.16C123.085 287.712 122.989 287.296 122.797 286.912C122.605 286.528 122.269 286.128 121.789 285.712L124.669 283.264C125.629 283.808 126.317 284.416 126.733 285.088C127.181 285.728 127.405 286.496 127.405 287.392C127.405 287.808 127.357 288.288 127.261 288.832L126.445 293.488H132.877L132.253 296.8H125.869L123.709 308.896Z" fill="#E7E1E1"/>
<path d="M102.514 316.576C99.6342 316.576 97.4262 315.952 95.8902 314.704C94.3542 313.424 93.5862 311.712 93.5862 309.568C93.5862 308.992 93.6342 308.416 93.7302 307.84L94.8342 301.696C95.3142 298.944 96.4662 296.8 98.2902 295.264C100.114 293.728 102.626 292.96 105.826 292.96C108.674 292.96 110.834 293.584 112.306 294.832C113.81 296.08 114.562 297.776 114.562 299.92C114.562 300.464 114.514 301.056 114.418 301.696L113.362 307.84C112.882 310.56 111.746 312.704 109.954 314.272C108.162 315.808 105.682 316.576 102.514 316.576ZM102.562 313.264C104.418 313.264 105.906 312.768 107.026 311.776C108.146 310.784 108.85 309.472 109.138 307.84L110.194 301.696C110.29 301.216 110.338 300.768 110.338 300.352C110.338 299.104 109.938 298.112 109.138 297.376C108.37 296.64 107.17 296.272 105.538 296.272C103.682 296.272 102.21 296.768 101.122 297.76C100.034 298.752 99.3462 300.064 99.0582 301.696L97.9542 307.84C97.8902 308.128 97.8582 308.56 97.8582 309.136C97.8582 310.416 98.2422 311.424 99.0102 312.16C99.7782 312.896 100.962 313.264 102.562 313.264Z" fill="#E7E1E1"/>
<path d="M81.1961 292.96C83.8201 292.96 85.8521 293.76 87.2921 295.36C88.7641 296.96 89.5001 299.072 89.5001 301.696C89.5001 302.208 89.4361 302.976 89.3081 304L89.0681 305.536C88.5881 308.672 87.3561 311.296 85.3721 313.408C83.4201 315.52 80.8761 316.576 77.7401 316.576C76.0761 316.576 74.6201 316.272 73.3721 315.664C72.1241 315.056 71.1641 314.208 70.4921 313.12L68.1401 326.56H63.9161L68.8601 298.528C68.9241 298.144 68.9561 297.888 68.9561 297.76C68.9561 297.312 68.8601 296.928 68.6681 296.608C68.4761 296.288 68.1401 295.904 67.6601 295.456L70.4921 292.96C71.3561 293.504 71.9961 294.08 72.4121 294.688C72.8601 295.296 73.1161 296 73.1801 296.8C75.1641 294.24 77.8361 292.96 81.1961 292.96ZM85.0841 304C85.1801 303.36 85.2281 302.768 85.2281 302.224C85.2281 300.464 84.7641 299.04 83.8361 297.952C82.9401 296.832 81.6121 296.272 79.8521 296.272C76.6201 296.272 74.2201 297.856 72.6521 301.024L71.3561 308.512C71.5801 310.08 72.1881 311.264 73.1801 312.064C74.2041 312.864 75.5321 313.264 77.1641 313.264C79.1801 313.264 80.8601 312.56 82.2041 311.152C83.5801 309.712 84.4601 307.84 84.8441 305.536L85.0841 304Z" fill="#E7E1E1"/>
<path d="M193.811 258.128C193.747 258.416 193.715 258.832 193.715 259.376C193.715 262 195.363 263.312 198.659 263.312C199.971 263.312 201.155 263.12 202.211 262.736C203.299 262.352 204.355 261.728 205.379 260.864L207.539 263.216C206.355 264.368 205.027 265.216 203.555 265.76C202.083 266.304 200.403 266.576 198.515 266.576C195.539 266.576 193.283 266.032 191.747 264.944C190.211 263.856 189.443 262.224 189.443 260.048C189.443 259.344 189.507 258.688 189.635 258.08L190.883 250.928C191.331 248.432 192.451 246.48 194.243 245.072C196.067 243.664 198.403 242.96 201.251 242.96C203.971 242.96 206.115 243.6 207.683 244.88C209.251 246.128 210.035 247.872 210.035 250.112C210.035 252.416 209.571 254.08 208.643 255.104C207.715 256.128 206.211 256.64 204.131 256.64H194.051L193.811 258.128ZM201.155 246.224C199.491 246.224 198.115 246.672 197.027 247.568C195.971 248.432 195.299 249.648 195.011 251.216L194.579 253.616H202.739C203.827 253.616 204.611 253.36 205.091 252.848C205.571 252.336 205.811 251.44 205.811 250.16C205.811 248.912 205.395 247.952 204.563 247.28C203.763 246.576 202.627 246.224 201.155 246.224Z" fill="#E7E1E1"/>
<path d="M183.042 261.008C182.978 261.392 182.946 261.664 182.946 261.824C182.946 262.24 183.042 262.624 183.234 262.976C183.426 263.296 183.762 263.664 184.242 264.08L181.41 266.576C179.906 265.584 179.058 264.4 178.866 263.024C176.818 265.392 174.162 266.576 170.898 266.576C168.242 266.576 166.162 265.776 164.658 264.176C163.154 262.576 162.402 260.464 162.402 257.84C162.402 256.976 162.466 256.208 162.594 255.536L162.834 254C163.154 251.952 163.826 250.096 164.85 248.432C165.906 246.736 167.25 245.408 168.882 244.448C170.546 243.456 172.418 242.96 174.498 242.96C176.162 242.96 177.57 243.264 178.722 243.872C179.906 244.48 180.802 245.296 181.41 246.32L183.138 236.48C183.17 236.32 183.186 236.096 183.186 235.808C183.186 235.328 183.09 234.912 182.898 234.56C182.706 234.176 182.386 233.776 181.938 233.36L184.818 230.864C185.746 231.408 186.418 232.016 186.834 232.688C187.282 233.328 187.506 234.096 187.506 234.992C187.506 235.44 187.458 235.936 187.362 236.48L183.042 261.008ZM180.594 250.976C180.37 249.408 179.778 248.24 178.818 247.472C177.858 246.672 176.61 246.272 175.074 246.272C173.026 246.272 171.266 246.992 169.794 248.432C168.322 249.872 167.41 251.728 167.058 254L166.818 255.536C166.722 256.144 166.674 256.752 166.674 257.36C166.674 259.184 167.138 260.624 168.066 261.68C168.994 262.736 170.322 263.264 172.05 263.264C175.282 263.264 177.698 261.68 179.298 258.512L180.594 250.976Z" fill="#E7E1E1"/>
<path d="M145.591 242.96C146.263 242.96 146.935 243.04 147.607 243.2C148.311 243.36 148.871 243.616 149.287 243.968L147.559 247.664C146.663 247.024 145.575 246.704 144.295 246.704C142.695 246.704 141.287 247.36 140.071 248.672C138.887 249.952 137.895 251.552 137.095 253.472L134.887 266.048H130.663L133.735 248.528C133.799 248.144 133.831 247.888 133.831 247.76C133.831 247.344 133.719 246.96 133.495 246.608C133.303 246.224 132.983 245.824 132.535 245.408L135.415 242.96C136.375 243.504 137.063 244.096 137.479 244.736C137.895 245.344 138.103 246.096 138.103 246.992C138.103 247.344 138.087 247.632 138.055 247.856C140.007 244.592 142.519 242.96 145.591 242.96Z" fill="#E7E1E1"/>
<path d="M111.405 258.128C111.341 258.416 111.309 258.832 111.309 259.376C111.309 262 112.957 263.312 116.253 263.312C117.565 263.312 118.749 263.12 119.805 262.736C120.893 262.352 121.949 261.728 122.973 260.864L125.133 263.216C123.949 264.368 122.621 265.216 121.149 265.76C119.677 266.304 117.997 266.576 116.109 266.576C113.133 266.576 110.877 266.032 109.341 264.944C107.805 263.856 107.037 262.224 107.037 260.048C107.037 259.344 107.101 258.688 107.229 258.08L108.477 250.928C108.925 248.432 110.045 246.48 111.837 245.072C113.661 243.664 115.997 242.96 118.845 242.96C121.565 242.96 123.709 243.6 125.277 244.88C126.845 246.128 127.629 247.872 127.629 250.112C127.629 252.416 127.165 254.08 126.237 255.104C125.309 256.128 123.805 256.64 121.725 256.64H111.645L111.405 258.128ZM118.749 246.224C117.085 246.224 115.709 246.672 114.621 247.568C113.565 248.432 112.893 249.648 112.605 251.216L112.173 253.616H120.333C121.421 253.616 122.205 253.36 122.685 252.848C123.165 252.336 123.405 251.44 123.405 250.16C123.405 248.912 122.989 247.952 122.157 247.28C121.357 246.576 120.221 246.224 118.749 246.224Z" fill="#E7E1E1"/>
<path d="M101.671 239.072C101.031 239.072 100.487 238.864 100.039 238.448C99.6232 238.032 99.4152 237.504 99.4152 236.864C99.4152 236.064 99.7352 235.344 100.375 234.704C101.047 234.032 101.799 233.696 102.631 233.696C103.271 233.696 103.799 233.92 104.215 234.368C104.631 234.784 104.839 235.312 104.839 235.952C104.839 236.752 104.503 237.472 103.831 238.112C103.191 238.752 102.471 239.072 101.671 239.072ZM98.3112 266.576C97.3512 265.936 96.6472 265.28 96.1992 264.608C95.7832 263.936 95.5752 263.152 95.5752 262.256C95.5752 261.712 95.6072 261.296 95.6712 261.008L98.7912 243.488H103.015L99.8952 261.008C99.8632 261.168 99.8472 261.392 99.8472 261.68C99.8472 262.128 99.9432 262.544 100.135 262.928C100.359 263.28 100.695 263.664 101.143 264.08L98.3112 266.576Z" fill="#E7E1E1"/>
<path d="M86.3536 266.576C85.4256 265.968 84.7376 265.328 84.2896 264.656C83.8416 263.984 83.6176 263.2 83.6176 262.304C83.6176 261.92 83.6656 261.488 83.7616 261.008L88.0816 236.432C88.1456 236.048 88.1776 235.792 88.1776 235.664C88.1776 235.248 88.0656 234.864 87.8416 234.512C87.6496 234.16 87.3296 233.776 86.8816 233.36L89.7136 230.864C90.6416 231.472 91.3136 232.112 91.7296 232.784C92.1776 233.456 92.4016 234.24 92.4016 235.136C92.4016 235.712 92.3696 236.144 92.3056 236.432L87.9856 261.008C87.9216 261.392 87.8896 261.648 87.8896 261.776C87.8896 262.192 87.9856 262.576 88.1776 262.928C88.4016 263.28 88.7376 263.664 89.1856 264.08L86.3536 266.576Z" fill="#E7E1E1"/>
<path d="M63.6394 258.128C63.5754 258.416 63.5434 258.832 63.5434 259.376C63.5434 262 65.1914 263.312 68.4874 263.312C69.7994 263.312 70.9834 263.12 72.0394 262.736C73.1274 262.352 74.1834 261.728 75.2074 260.864L77.3674 263.216C76.1834 264.368 74.8554 265.216 73.3834 265.76C71.9114 266.304 70.2314 266.576 68.3434 266.576C65.3674 266.576 63.1114 266.032 61.5754 264.944C60.0394 263.856 59.2714 262.224 59.2714 260.048C59.2714 259.344 59.3354 258.688 59.4634 258.08L60.7114 250.928C61.1594 248.432 62.2794 246.48 64.0714 245.072C65.8954 243.664 68.2314 242.96 71.0794 242.96C73.7994 242.96 75.9434 243.6 77.5114 244.88C79.0794 246.128 79.8634 247.872 79.8634 250.112C79.8634 252.416 79.3994 254.08 78.4714 255.104C77.5434 256.128 76.0394 256.64 73.9594 256.64H63.8794L63.6394 258.128ZM70.9834 246.224C69.3194 246.224 67.9434 246.672 66.8554 247.568C65.7994 248.432 65.1274 249.648 64.8394 251.216L64.4074 253.616H72.5674C73.6554 253.616 74.4394 253.36 74.9194 252.848C75.3994 252.336 75.6394 251.44 75.6394 250.16C75.6394 248.912 75.2234 247.952 74.3914 247.28C73.5914 246.576 72.4554 246.224 70.9834 246.224Z" fill="#E7E1E1"/>
<path d="M48.662 258.896C48.566 259.376 48.518 259.824 48.518 260.24C48.518 262.032 49.462 262.928 51.35 262.928H54.374L53.798 266.24H50.774C48.598 266.24 46.966 265.824 45.878 264.992C44.79 264.16 44.246 262.832 44.246 261.008C44.246 260.272 44.31 259.568 44.438 258.896L47.99 238.832C48.022 238.672 48.038 238.448 48.038 238.16C48.038 237.712 47.942 237.296 47.75 236.912C47.558 236.528 47.222 236.128 46.742 235.712L49.622 233.264C50.582 233.808 51.27 234.416 51.686 235.088C52.134 235.728 52.358 236.496 52.358 237.392C52.358 237.808 52.31 238.288 52.214 238.832L51.398 243.488H57.83L57.206 246.8H50.822L48.662 258.896Z" fill="#E7E1E1"/>
<path d="M33.8457 256.256H19.3977L14.6937 266.048H10.1337L23.5257 238.4C24.6457 236.032 25.7337 234.368 26.7897 233.408C27.8457 232.416 29.2057 231.92 30.8697 231.92C32.5337 231.92 33.7337 232.4 34.4697 233.36C35.2057 234.32 35.7177 236 36.0057 238.4L39.7017 266.048H35.0937L33.8457 256.256ZM33.4137 252.752L31.6377 238.448C31.5097 237.616 31.3337 237.024 31.1097 236.672C30.9177 236.32 30.6137 236.144 30.1977 236.144C29.7177 236.144 29.3177 236.32 28.9977 236.672C28.6777 237.024 28.3097 237.616 27.8937 238.448L21.0297 252.752H33.4137Z" fill="#E7E1E1"/>
</svg>
