<svg width="373" height="380" viewBox="0 0 373 380" fill="none" xmlns="http://www.w3.org/2000/svg">
<path d="M335.783 347.875C376.186 270.208 361.393 227.501 362.317 220.641C362.475 219.462 364.023 217.475 364.084 217.079C365.149 209.797 360.285 201.38 359.151 194.925C354.349 167.652 366.107 144.434 370.223 118.208C373.838 95.0427 374.594 65.4219 360.751 45.5282C347.12 25.9335 318.819 19.7068 297.791 32.2129C296.903 32.7406 295.601 33.7432 293.64 35.1416C293.798 31.1224 294.519 26.98 295.601 23.4094C295.856 22.5827 295.469 21.5625 295.847 20.8413C297.597 17.4993 302.223 13.0931 298.398 7.32374C296.058 3.78825 269.42 1.45763 264.275 1.1762C255.823 0.718874 245.252 0.49021 235.525 0.868385V378.199C283.473 382.544 350.681 373.546 335.792 347.866L335.783 347.875ZM328.959 155.322C324.482 149.896 311.273 136.695 310.649 135.332C293.358 120.055 289.419 64.2435 309.752 51.7285C327.895 40.568 349.204 51.6933 353.891 76.1164C358.359 99.3697 349.644 136.404 344.516 158.866C344.446 159.183 341.904 163.58 341.904 164.759C341.904 165.726 342.089 170.924 341.904 171.188C341.227 172.12 331.764 158.726 328.959 155.322Z" fill="#C1272D"/>
<path d="M257.264 164.802C257.259 164.802 257.255 164.798 257.255 164.793C257.255 164.787 257.251 164.783 257.246 164.784C255.821 164.88 254.442 165.348 253.249 166.145C251.902 167.045 250.853 168.324 250.233 169.82C249.613 171.317 249.451 172.963 249.767 174.552C249.906 175.251 250.135 175.925 250.445 176.559C251.102 177.897 251.153 179.599 250.099 180.653C249.045 181.708 247.309 181.718 246.484 180.477C245.506 179.007 244.82 177.353 244.472 175.605C243.948 172.969 244.217 170.237 245.245 167.754C246.274 165.272 248.015 163.15 250.25 161.657C252.332 160.265 254.755 159.478 257.25 159.378C257.253 159.378 257.255 159.375 257.255 159.372C257.255 159.369 257.258 159.366 257.261 159.366H301.279C302.78 159.366 303.997 160.583 303.997 162.084C303.997 163.585 302.78 164.802 301.279 164.802H257.264Z" fill="#2C1F1F"/>
<path d="M279.538 231.109C281.292 233.447 282.257 236.305 282.257 239.262C282.257 242.866 280.825 246.322 278.277 248.87C277.819 249.327 277.332 249.748 276.82 250.132C277.332 250.516 277.819 250.937 278.277 251.394C280.825 253.942 282.257 257.398 282.257 261.002C282.257 264.606 280.825 268.062 278.277 270.61C275.772 273.115 272.389 274.54 268.851 274.588C268.851 274.588 268.85 274.588 268.85 274.589C268.85 274.589 268.85 274.59 268.849 274.59H246.929C245.428 274.59 244.211 273.373 244.211 271.872C244.211 270.371 245.428 269.155 246.929 269.155H268.833C268.842 269.155 268.85 269.162 268.85 269.172C268.85 269.181 268.858 269.189 268.868 269.189C270.968 269.138 272.971 268.282 274.46 266.793C275.995 265.257 276.858 263.174 276.858 261.002C276.858 258.83 275.995 256.747 274.46 255.211C273.068 253.82 271.227 252.98 269.277 252.835C269.135 252.842 268.993 252.845 268.851 252.847C268.851 252.847 268.85 252.848 268.85 252.848C268.85 252.849 268.85 252.85 268.849 252.85H246.929C245.428 252.85 244.211 251.633 244.211 250.132C244.211 248.631 245.428 247.414 246.929 247.414H268.849C268.85 247.414 268.85 247.415 268.85 247.416C268.85 247.416 268.851 247.417 268.851 247.417C268.993 247.418 269.135 247.422 269.277 247.429C271.227 247.283 273.068 246.444 274.46 245.053C275.995 243.517 276.858 241.434 276.858 239.262C276.858 237.09 275.995 235.007 274.46 233.471C273.107 232.119 271.33 231.288 269.442 231.109H246.929C245.428 231.109 244.211 229.893 244.211 228.392C244.211 226.891 245.428 225.674 246.929 225.674H279.539C281.04 225.674 282.257 226.891 282.257 228.392C282.257 229.893 281.039 231.109 279.538 231.109Z" fill="#2C1F1F"/>
<path d="M279.538 285.46C281.292 287.798 282.257 290.655 282.257 293.613C282.257 297.216 280.825 300.672 278.277 303.221C277.819 303.678 277.332 304.099 276.82 304.483C277.332 304.866 277.819 305.287 278.277 305.745C280.825 308.293 282.257 311.749 282.257 315.353C282.257 318.956 280.825 322.413 278.277 324.961C275.772 327.466 272.389 328.891 268.851 328.938C268.851 328.938 268.85 328.939 268.85 328.939C268.85 328.94 268.85 328.94 268.849 328.94H246.929C245.428 328.94 244.211 327.724 244.211 326.223C244.211 324.722 245.428 323.505 246.929 323.505H268.833C268.842 323.505 268.85 323.513 268.85 323.523C268.85 323.532 268.858 323.54 268.868 323.54C270.968 323.489 272.971 322.632 274.46 321.143C275.995 319.608 276.858 317.525 276.858 315.353C276.858 313.181 275.995 311.098 274.46 309.562C273.068 308.17 271.227 307.331 269.277 307.186C269.135 307.192 268.993 307.196 268.851 307.198C268.851 307.198 268.85 307.199 268.85 307.199C268.85 307.2 268.85 307.2 268.849 307.2H246.929C245.428 307.2 244.211 305.984 244.211 304.483C244.211 302.982 245.428 301.765 246.929 301.765H268.849C268.85 301.765 268.85 301.766 268.85 301.766C268.85 301.767 268.851 301.767 268.851 301.767C268.993 301.769 269.135 301.773 269.277 301.779C271.227 301.634 273.068 300.795 274.46 299.403C275.995 297.867 276.858 295.785 276.858 293.613C276.858 291.441 275.995 289.358 274.46 287.822C273.107 286.469 271.33 285.639 269.442 285.46H246.929C245.428 285.46 244.211 284.243 244.211 282.742C244.211 281.242 245.428 280.025 246.929 280.025H279.539C281.04 280.025 282.257 281.242 282.257 282.742C282.257 284.243 281.039 285.46 279.538 285.46Z" fill="#2C1F1F"/>
<path d="M260.516 137.626V145.779C260.516 147.28 261.733 148.496 263.234 148.496C264.735 148.496 265.951 147.28 265.951 145.779V137.626H290.944C290.949 137.626 290.953 137.622 290.953 137.617C290.953 137.612 290.957 137.608 290.962 137.608C292.387 137.705 293.766 138.172 294.959 138.969C296.306 139.869 297.355 141.148 297.975 142.645C298.595 144.141 298.757 145.788 298.441 147.376C298.302 148.076 298.073 148.75 297.762 149.383C297.106 150.722 297.054 152.424 298.109 153.478C299.163 154.532 300.899 154.543 301.724 153.302C302.702 151.832 303.388 150.178 303.736 148.429C304.26 145.794 303.991 143.062 302.963 140.579C301.934 138.096 300.193 135.974 297.958 134.481C295.876 133.09 293.453 132.303 290.958 132.202C290.955 132.202 290.953 132.2 290.953 132.197C290.953 132.194 290.95 132.191 290.947 132.191H265.951V129.474C265.951 127.973 264.735 126.756 263.234 126.756C261.733 126.756 260.516 127.973 260.516 129.474V132.191H246.929C245.428 132.191 244.211 133.408 244.211 134.909C244.211 136.41 245.428 137.626 246.929 137.626H260.516Z" fill="#2C1F1F"/>
<path fill-rule="evenodd" clip-rule="evenodd" d="M246.929 220.239C245.428 220.239 244.211 219.022 244.211 217.522C244.211 216.021 245.428 214.804 246.929 214.804H249.921C248.091 213.011 246.633 210.858 245.647 208.468C244.211 204.985 243.842 201.153 244.586 197.46C245.33 193.767 247.154 190.377 249.826 187.722C252.499 185.066 255.9 183.264 259.598 182.544C263.296 181.824 267.125 182.219 270.599 183.677C274.072 185.136 277.035 187.593 279.11 190.738C281.13 193.797 282.221 197.373 282.255 201.035C282.255 201.035 282.256 201.035 282.256 201.035C282.256 201.035 282.257 201.035 282.257 201.036V215.239C282.257 218.001 280.018 220.239 277.257 220.239H246.929ZM276.826 201.035C276.829 201.035 276.831 201.033 276.831 201.031C276.795 198.433 276.016 195.897 274.583 193.726C273.099 191.478 270.982 189.721 268.499 188.679C266.016 187.636 263.278 187.354 260.635 187.869C257.991 188.384 255.56 189.672 253.65 191.57C251.739 193.468 250.435 195.891 249.903 198.531C249.372 201.171 249.636 203.91 250.662 206.4C251.689 208.89 253.432 211.019 255.67 212.517C257.762 213.917 260.198 214.707 262.707 214.804H271.821C274.583 214.804 276.821 212.565 276.821 209.804V201.04C276.821 201.037 276.824 201.035 276.826 201.035Z" fill="#2C1F1F"/>
<path fill-rule="evenodd" clip-rule="evenodd" d="M280.01 342.982C282.085 346.863 282.75 351.343 281.891 355.66C281.032 359.976 278.704 363.862 275.302 366.653C272.136 369.251 268.224 370.752 264.151 370.949C264.144 370.949 264.14 370.954 264.14 370.96C264.14 370.966 264.135 370.971 264.128 370.971H262.328C261.327 370.971 260.516 370.16 260.516 369.16V338.62C260.103 338.704 259.692 338.807 259.285 338.93C256.273 339.844 253.671 341.774 251.922 344.391C250.174 347.008 249.387 350.15 249.695 353.282C249.915 355.509 250.678 357.633 251.901 359.475C252.729 360.722 252.756 362.426 251.698 363.484C250.64 364.542 248.907 364.552 248.01 363.354C245.936 360.586 244.645 357.289 244.303 353.813C243.871 349.433 244.972 345.04 247.417 341.38C249.862 337.721 253.5 335.023 257.712 333.745C261.923 332.468 266.447 332.69 270.513 334.374C274.579 336.058 277.936 339.1 280.01 342.982ZM276.576 354.603C277.19 351.516 276.715 348.312 275.232 345.536C273.748 342.76 271.348 340.585 268.44 339.38C267.632 339.045 266.798 338.792 265.951 338.619V365.278C268.109 364.838 270.141 363.879 271.864 362.465C274.297 360.468 275.962 357.69 276.576 354.603Z" fill="#2C1F1F"/>
<path fill-rule="evenodd" clip-rule="evenodd" d="M281.454 69.606C282.16 71.0351 282.409 72.6472 282.166 74.2228C281.924 75.7984 281.201 77.2611 280.097 78.4113C278.993 79.5614 277.561 80.3433 275.997 80.6505C274.433 80.9576 272.812 80.7751 271.355 80.1278C270.046 79.5465 268.928 78.6153 268.119 77.4416C267.622 76.7043 267.325 75.7929 266.954 74.9906L258.055 83.7238L265.636 90.2281C266.433 90.9122 266.525 92.1132 265.841 92.9106Lnan nanL265.841 92.9106C265.157 93.708 263.956 93.7998 263.158 93.1156L255.33 86.3985L248.557 93.0446C247.807 93.7805 246.603 93.7691 245.867 93.0194Lnan nanL245.867 93.0194C245.131 92.2696 245.143 91.0652 245.892 90.3294L252.432 83.9121C252.432 83.9121 249.867 81.7679 248.228 80.1687C246.589 78.5695 245.388 76.5735 244.745 74.3716C244.069 72.0564 244.034 69.6009 244.645 67.2675C245.255 64.9341 246.488 62.8102 248.212 61.123C249.9 59.471 251.995 58.2985 254.284 57.7238C256.475 57.3126 258.917 57.8095 260.893 58.7837C262.87 59.7578 264.52 61.2819 265.647 63.1706C266.775 65.0594 268.144 68.4929 268.144 68.4929C268.144 68.4929 268.862 67.6971 269.393 67.2665C270.807 66.1207 273.21 65.385 273.634 65.3372C275.218 65.1585 276.819 65.4725 278.218 66.2364C279.618 67.0002 280.747 68.1769 281.454 69.606ZM262.447 65.2656C261.696 63.9459 260.566 62.8817 259.204 62.2103C257.867 61.5511 256.366 61.3006 254.888 61.4888C253.376 61.9249 251.993 62.7297 250.865 63.8337C249.633 65.0404 248.751 66.5591 248.314 68.2278C247.878 69.8965 247.902 71.6526 248.386 73.3083C248.869 74.964 249.794 76.4574 251.06 77.6288C252.326 78.8002 255.157 81.2375 255.157 81.2375L265.26 71.3228C265.26 71.3228 263.198 66.5854 262.447 65.2656ZM278.406 73.6434C278.529 72.841 278.403 72.0199 278.043 71.2921C277.683 70.5643 277.108 69.965 276.395 69.576C275.683 69.187 274.867 69.0273 274.06 69.1183C273.343 69.1992 272.664 69.4751 272.095 69.9131C271.526 70.3511 269.838 72.1607 269.838 72.1607C269.838 72.1607 270.925 74.8443 271.33 75.3909C271.735 75.9375 272.274 76.3728 272.9 76.6507C273.642 76.9804 274.467 77.0731 275.264 76.9167C276.061 76.7603 276.79 76.3621 277.352 75.7763C277.914 75.1906 278.282 74.4458 278.406 73.6434Z" fill="#2C1F1F"/>
<path d="M186.734 79.1796C186.529 78.9505 186.331 78.7155 186.138 78.4749C184.563 76.5079 183.447 74.2135 182.873 71.7599C182.513 70.2201 182.372 68.6418 182.45 67.0714C182.527 65.524 184.048 64.5628 185.561 64.8943C187.075 65.2258 187.995 66.7329 188.046 68.2817C188.071 69.0209 188.168 69.7582 188.337 70.4827C188.721 72.1221 189.466 73.6552 190.518 74.9694C191.571 76.2837 192.904 77.346 194.42 78.0788C195.731 78.7121 197.15 79.0845 198.598 79.1796H219.066C220.622 79.1796 221.883 80.4408 221.883 81.9966C221.883 83.5524 220.622 84.8136 219.066 84.8136H185.246C183.69 84.8136 182.429 83.5524 182.429 81.9966C182.429 80.4408 183.69 79.1796 185.246 79.1796H186.734Z" fill="#C1272D"/>
<path d="M186.734 55.1407C186.529 54.9117 186.331 54.6766 186.138 54.4361C184.563 52.4691 183.447 50.1747 182.873 47.7211C182.513 46.1812 182.372 44.603 182.45 43.0326C182.527 41.4852 184.048 40.524 185.561 40.8555C187.075 41.187 187.995 42.6941 188.046 44.2429C188.071 44.9821 188.168 45.7193 188.337 46.4439C188.721 48.0833 189.466 49.6164 190.518 50.9306C191.571 52.2448 192.904 53.3072 194.42 54.04C195.731 54.6733 197.15 55.0457 198.598 55.1407H219.066C220.622 55.1407 221.883 56.402 221.883 57.9578C221.883 59.5136 220.622 60.7748 219.066 60.7748H185.246C183.69 60.7748 182.429 59.5136 182.429 57.9578C182.429 56.402 183.69 55.1407 185.246 55.1407H186.734Z" fill="#C1272D"/>
<path d="M176.793 146.036V137.587C176.793 136.03 178.055 134.768 179.611 134.768C181.168 134.768 182.429 136.03 182.429 137.587V146.036H208.347C208.352 146.036 208.357 146.041 208.357 146.046C208.357 146.051 208.361 146.055 208.366 146.055C209.844 145.955 211.274 145.47 212.511 144.644C213.908 143.711 214.996 142.385 215.639 140.834C216.282 139.283 216.45 137.576 216.122 135.929C215.978 135.205 215.741 134.506 215.419 133.85C214.739 132.462 214.685 130.696 215.778 129.603C216.871 128.511 218.671 128.5 219.527 129.786C220.54 131.31 221.252 133.025 221.613 134.838C222.157 137.57 221.878 140.402 220.811 142.976C219.745 145.549 217.939 147.749 215.621 149.297C213.462 150.739 210.95 151.554 208.362 151.659C208.359 151.659 208.357 151.662 208.357 151.665C208.357 151.668 208.354 151.671 208.351 151.671H182.429V154.486C182.429 156.043 181.168 157.305 179.611 157.305C178.055 157.305 176.793 156.043 176.793 154.486V151.671H162.701C161.145 151.671 159.884 150.409 159.884 148.854C159.884 147.298 161.145 146.036 162.701 146.036H176.793Z" fill="#C1272D"/>
<path fill-rule="evenodd" clip-rule="evenodd" d="M184.758 117.96C182.607 113.936 181.918 109.292 182.808 104.817C183.698 100.343 186.113 96.3154 189.641 93.4212C192.924 90.7285 196.981 89.1725 201.206 88.9688C201.212 88.9685 201.217 88.9633 201.217 88.957C201.217 88.9504 201.222 88.9451 201.229 88.9451H203.096C204.133 88.9451 204.974 89.7863 204.974 90.8239V122.481C205.403 122.394 205.83 122.287 206.251 122.159C209.375 121.212 212.073 119.212 213.887 116.499C215.7 113.786 216.516 110.529 216.196 107.282C215.969 104.974 215.177 102.772 213.909 100.863C213.051 99.5708 213.022 97.8029 214.12 96.7058C215.217 95.6094 217.013 95.5993 217.944 96.8403C220.095 99.7101 221.433 103.128 221.788 106.732C222.236 111.272 221.094 115.826 218.559 119.619C216.023 123.413 212.25 126.21 207.883 127.534C203.515 128.859 198.823 128.628 194.607 126.882C190.39 125.137 186.91 121.983 184.758 117.96ZM188.32 105.913C187.683 109.113 188.175 112.434 189.714 115.312C191.253 118.189 193.742 120.444 196.757 121.693C197.595 122.04 198.46 122.303 199.338 122.482V94.8473C197.101 95.3033 194.993 96.2976 193.206 97.7634C190.683 99.8331 188.956 102.713 188.32 105.913Z" fill="#C1272D"/>
<path fill-rule="evenodd" clip-rule="evenodd" d="M184.758 29.6926C182.607 25.6692 181.918 21.0246 182.808 16.5502C183.698 12.0757 186.113 8.04829 189.641 5.15411C192.924 2.46138 196.981 0.905369 201.206 0.701706C201.212 0.701401 201.217 0.696201 201.217 0.689888C201.217 0.683353 201.222 0.678059 201.229 0.678059H203.096C204.133 0.678059 204.974 1.51922 204.974 2.55685V34.2142C205.403 34.1267 205.83 34.02 206.251 33.8921C209.375 32.945 212.073 30.9447 213.887 28.232C215.7 25.5193 216.516 22.2619 216.196 19.0151C215.969 16.7068 215.177 14.5053 213.909 12.5964C213.051 11.3037 213.022 9.53579 214.12 8.43871C215.217 7.34228 217.013 7.33221 217.944 8.57321C220.095 11.443 221.433 14.8607 221.788 18.4645C222.236 23.0046 221.094 27.5592 218.559 31.3524C216.023 35.1456 212.25 37.9429 207.883 39.2672C203.515 40.5915 198.823 40.3612 194.607 38.6154C190.39 36.8695 186.91 33.7161 184.758 29.6926ZM188.32 17.6458C187.683 20.8457 188.175 24.1674 189.714 27.0447C191.253 29.922 193.742 32.1774 196.757 33.4259C197.595 33.7729 198.46 34.0359 199.338 34.2149V6.58023C197.101 7.03619 194.993 8.03054 193.206 9.49628C190.683 11.566 188.956 14.446 188.32 17.6458Z" fill="#C1272D"/>
<path d="M193.811 362.97C193.747 363.258 193.715 363.674 193.715 364.218C193.715 366.842 195.363 368.154 198.659 368.154C199.971 368.154 201.155 367.962 202.211 367.578C203.299 367.194 204.355 366.57 205.379 365.706L207.539 368.058C206.355 369.21 205.027 370.058 203.555 370.602C202.083 371.146 200.403 371.418 198.515 371.418C195.539 371.418 193.283 370.874 191.747 369.786C190.211 368.698 189.443 367.066 189.443 364.89C189.443 364.186 189.507 363.53 189.635 362.922L190.883 355.77C191.331 353.274 192.451 351.322 194.243 349.914C196.067 348.506 198.403 347.802 201.251 347.802C203.971 347.802 206.115 348.442 207.683 349.722C209.251 350.97 210.035 352.714 210.035 354.954C210.035 357.258 209.571 358.922 208.643 359.946C207.715 360.97 206.211 361.482 204.131 361.482H194.051L193.811 362.97ZM201.155 351.066C199.491 351.066 198.115 351.514 197.027 352.41C195.971 353.274 195.299 354.49 195.011 356.058L194.579 358.458H202.739C203.827 358.458 204.611 358.202 205.091 357.69C205.571 357.178 205.811 356.282 205.811 355.002C205.811 353.754 205.395 352.794 204.563 352.122C203.763 351.418 202.627 351.066 201.155 351.066Z" fill="#2C1F1F"/>
<path d="M180.947 371.418C180.019 370.81 179.331 370.17 178.883 369.498C178.435 368.826 178.211 368.042 178.211 367.146C178.211 366.762 178.259 366.33 178.355 365.85L182.675 341.274C182.739 340.89 182.771 340.634 182.771 340.506C182.771 340.09 182.659 339.706 182.435 339.354C182.243 339.002 181.923 338.618 181.475 338.202L184.307 335.706C185.235 336.314 185.907 336.954 186.323 337.626C186.771 338.298 186.995 339.082 186.995 339.978C186.995 340.554 186.963 340.986 186.899 341.274L182.579 365.85C182.515 366.234 182.483 366.49 182.483 366.618C182.483 367.034 182.579 367.418 182.771 367.77C182.995 368.122 183.331 368.506 183.779 368.922L180.947 371.418Z" fill="#2C1F1F"/>
<path d="M171.887 365.85C171.823 366.234 171.791 366.506 171.791 366.666C171.791 367.082 171.887 367.45 172.079 367.77C172.303 368.09 172.639 368.474 173.087 368.922L170.255 371.418C169.423 370.874 168.783 370.314 168.335 369.738C167.919 369.162 167.663 368.506 167.567 367.77C166.671 368.89 165.535 369.786 164.159 370.458C162.783 371.098 161.199 371.418 159.407 371.418C157.231 371.418 155.535 370.922 154.319 369.93C153.135 368.938 152.543 367.562 152.543 365.802C152.543 363.21 153.407 361.306 155.135 360.09C156.895 358.874 159.343 358.106 162.479 357.786L165.839 357.402C167.247 357.242 168.191 356.986 168.671 356.634C169.183 356.282 169.487 355.658 169.583 354.762V354.858C169.647 353.578 169.295 352.586 168.527 351.882C167.791 351.178 166.703 350.826 165.263 350.826C163.599 350.826 162.287 351.034 161.327 351.45C160.367 351.866 159.375 352.57 158.351 353.562L155.855 351.498C156.975 350.218 158.287 349.29 159.791 348.714C161.295 348.106 163.215 347.802 165.551 347.802C168.175 347.802 170.207 348.362 171.647 349.482C173.087 350.602 173.807 352.138 173.807 354.09C173.807 354.602 173.759 355.13 173.663 355.674L171.887 365.85ZM160.511 368.298C162.591 368.298 164.319 367.77 165.695 366.714C167.103 365.658 167.951 364.314 168.239 362.682L168.815 359.466C168.111 359.818 166.911 360.09 165.215 360.282L162.335 360.57C160.543 360.73 159.151 361.242 158.159 362.106C157.167 362.938 156.671 364.058 156.671 365.466C156.671 366.394 156.991 367.098 157.631 367.578C158.303 368.058 159.263 368.298 160.511 368.298Z" fill="#2C1F1F"/>
<path d="M142.327 347.802C144.279 347.802 145.815 348.33 146.935 349.386C148.055 350.41 148.615 351.85 148.615 353.706C148.615 354.25 148.567 354.842 148.471 355.482L145.735 370.89H141.559L144.151 356.01C144.215 355.69 144.247 355.258 144.247 354.714C144.247 353.562 143.943 352.682 143.335 352.074C142.727 351.434 141.847 351.114 140.695 351.114C139.063 351.114 137.639 351.674 136.423 352.794C135.207 353.882 134.199 355.258 133.399 356.922L130.903 370.89H126.679L129.751 353.37C129.815 352.986 129.847 352.73 129.847 352.602C129.847 352.186 129.735 351.802 129.511 351.45C129.319 351.066 128.999 350.666 128.551 350.25L131.431 347.802C132.455 348.378 133.175 349.002 133.591 349.674C134.007 350.346 134.199 351.178 134.167 352.17C135.127 350.858 136.279 349.802 137.623 349.002C138.999 348.202 140.567 347.802 142.327 347.802Z" fill="#2C1F1F"/>
<path d="M120.605 365.85C120.541 366.234 120.509 366.506 120.509 366.666C120.509 367.082 120.605 367.45 120.797 367.77C121.021 368.09 121.357 368.474 121.805 368.922L118.973 371.418C118.141 370.874 117.501 370.314 117.053 369.738C116.637 369.162 116.381 368.506 116.285 367.77C115.389 368.89 114.253 369.786 112.877 370.458C111.501 371.098 109.917 371.418 108.125 371.418C105.949 371.418 104.253 370.922 103.037 369.93C101.853 368.938 101.261 367.562 101.261 365.802C101.261 363.21 102.125 361.306 103.853 360.09C105.613 358.874 108.061 358.106 111.197 357.786L114.557 357.402C115.965 357.242 116.909 356.986 117.389 356.634C117.901 356.282 118.205 355.658 118.301 354.762V354.858C118.365 353.578 118.013 352.586 117.245 351.882C116.509 351.178 115.421 350.826 113.981 350.826C112.317 350.826 111.005 351.034 110.045 351.45C109.085 351.866 108.093 352.57 107.069 353.562L104.573 351.498C105.693 350.218 107.005 349.29 108.509 348.714C110.013 348.106 111.933 347.802 114.269 347.802C116.893 347.802 118.925 348.362 120.365 349.482C121.805 350.602 122.525 352.138 122.525 354.09C122.525 354.602 122.477 355.13 122.381 355.674L120.605 365.85ZM109.229 368.298C111.309 368.298 113.037 367.77 114.413 366.714C115.821 365.658 116.669 364.314 116.957 362.682L117.533 359.466C116.829 359.818 115.629 360.09 113.933 360.282L111.053 360.57C109.261 360.73 107.869 361.242 106.877 362.106C105.885 362.938 105.389 364.058 105.389 365.466C105.389 366.394 105.709 367.098 106.349 367.578C107.021 368.058 107.981 368.298 109.229 368.298Z" fill="#2C1F1F"/>
<path d="M87.6544 371.418C85.4464 371.418 83.6864 371.098 82.3744 370.458C81.0624 369.818 80.0064 368.81 79.2064 367.434L82.3264 365.13C82.9984 366.25 83.7344 367.034 84.5344 367.482C85.3344 367.898 86.4224 368.106 87.7984 368.106C89.6544 368.106 91.0784 367.77 92.0704 367.098C93.0944 366.394 93.6064 365.45 93.6064 364.266C93.6064 363.402 93.1584 362.746 92.2624 362.298C91.3664 361.85 89.8464 361.434 87.7024 361.05C85.7184 360.666 84.2784 360.026 83.3824 359.13C82.4864 358.202 82.0384 357.018 82.0384 355.578C82.0384 354.074 82.4224 352.73 83.1904 351.546C83.9584 350.362 85.0464 349.45 86.4544 348.81C87.8944 348.138 89.5584 347.802 91.4464 347.802C95.5424 347.802 98.1344 349.034 99.2224 351.498L96.1984 353.754C95.5904 352.826 94.8704 352.154 94.0384 351.738C93.2384 351.322 92.2304 351.114 91.0144 351.114C89.5744 351.114 88.3904 351.482 87.4624 352.218C86.5664 352.922 86.1184 353.818 86.1184 354.906C86.1184 355.674 86.4544 356.266 87.1264 356.682C87.8304 357.098 88.8384 357.45 90.1504 357.738C92.8704 358.314 94.8064 359.018 95.9584 359.85C97.1104 360.682 97.6864 361.978 97.6864 363.738C97.6864 366.17 96.8224 368.058 95.0944 369.402C93.3984 370.746 90.9184 371.418 87.6544 371.418Z" fill="#2C1F1F"/>
<path d="M75.2806 343.914C74.6406 343.914 74.0966 343.706 73.6486 343.29C73.2326 342.874 73.0246 342.346 73.0246 341.706C73.0246 340.906 73.3446 340.186 73.9846 339.546C74.6566 338.874 75.4086 338.538 76.2406 338.538C76.8806 338.538 77.4086 338.762 77.8246 339.21C78.2406 339.626 78.4486 340.154 78.4486 340.794C78.4486 341.594 78.1126 342.314 77.4406 342.954C76.8006 343.594 76.0806 343.914 75.2806 343.914ZM71.9206 371.418C70.9606 370.778 70.2566 370.122 69.8086 369.45C69.3926 368.778 69.1846 367.994 69.1846 367.098C69.1846 366.554 69.2166 366.138 69.2806 365.85L72.4006 348.33H76.6246L73.5046 365.85C73.4726 366.01 73.4566 366.234 73.4566 366.522C73.4566 366.97 73.5526 367.386 73.7446 367.77C73.9686 368.122 74.3046 368.506 74.7526 368.922L71.9206 371.418Z" fill="#2C1F1F"/>
<path d="M57.8494 363.738C57.7534 364.218 57.7054 364.666 57.7054 365.082C57.7054 366.874 58.6494 367.77 60.5374 367.77H63.5614L62.9854 371.082H59.9614C57.7854 371.082 56.1534 370.666 55.0654 369.834C53.9774 369.002 53.4334 367.674 53.4334 365.85C53.4334 365.114 53.4974 364.41 53.6254 363.738L57.1774 343.674C57.2094 343.514 57.2254 343.29 57.2254 343.002C57.2254 342.554 57.1294 342.138 56.9374 341.754C56.7454 341.37 56.4094 340.97 55.9294 340.554L58.8094 338.106C59.7694 338.65 60.4574 339.258 60.8734 339.93C61.3214 340.57 61.5454 341.338 61.5454 342.234C61.5454 342.65 61.4974 343.13 61.4014 343.674L60.5854 348.33H67.0174L66.3934 351.642H60.0094L57.8494 363.738Z" fill="#2C1F1F"/>
<path d="M49.0756 347.802C49.7476 347.802 50.4196 347.882 51.0916 348.042C51.7956 348.202 52.3556 348.458 52.7716 348.81L51.0436 352.506C50.1476 351.866 49.0596 351.546 47.7796 351.546C46.1796 351.546 44.7716 352.202 43.5556 353.514C42.3716 354.794 41.3796 356.394 40.5796 358.314L38.3716 370.89H34.1476L37.2196 353.37C37.2836 352.986 37.3156 352.73 37.3156 352.602C37.3156 352.186 37.2036 351.802 36.9796 351.45C36.7876 351.066 36.4676 350.666 36.0196 350.25L38.8996 347.802C39.8596 348.346 40.5476 348.938 40.9636 349.578C41.3796 350.186 41.5876 350.938 41.5876 351.834C41.5876 352.186 41.5716 352.474 41.5396 352.698C43.4916 349.434 46.0036 347.802 49.0756 347.802Z" fill="#2C1F1F"/>
<path d="M28.074 365.85C28.01 366.234 27.978 366.506 27.978 366.666C27.978 367.082 28.074 367.45 28.266 367.77C28.49 368.09 28.826 368.474 29.274 368.922L26.442 371.418C25.61 370.874 24.97 370.314 24.522 369.738C24.106 369.162 23.85 368.506 23.754 367.77C22.858 368.89 21.722 369.786 20.346 370.458C18.97 371.098 17.386 371.418 15.594 371.418C13.418 371.418 11.722 370.922 10.506 369.93C9.32198 368.938 8.72998 367.562 8.72998 365.802C8.72998 363.21 9.59398 361.306 11.322 360.09C13.082 358.874 15.53 358.106 18.666 357.786L22.026 357.402C23.434 357.242 24.378 356.986 24.858 356.634C25.37 356.282 25.674 355.658 25.77 354.762V354.858C25.834 353.578 25.482 352.586 24.714 351.882C23.978 351.178 22.89 350.826 21.45 350.826C19.786 350.826 18.474 351.034 17.514 351.45C16.554 351.866 15.562 352.57 14.538 353.562L12.042 351.498C13.162 350.218 14.474 349.29 15.978 348.714C17.482 348.106 19.402 347.802 21.738 347.802C24.362 347.802 26.394 348.362 27.834 349.482C29.274 350.602 29.994 352.138 29.994 354.09C29.994 354.602 29.946 355.13 29.85 355.674L28.074 365.85ZM16.698 368.298C18.778 368.298 20.506 367.77 21.882 366.714C23.29 365.658 24.138 364.314 24.426 362.682L25.002 359.466C24.298 359.818 23.098 360.09 21.402 360.282L18.522 360.57C16.73 360.73 15.338 361.242 14.346 362.106C13.354 362.938 12.858 364.058 12.858 365.466C12.858 366.394 13.178 367.098 13.818 367.578C14.49 368.058 15.45 368.298 16.698 368.298Z" fill="#2C1F1F"/>
<path d="M193.811 307.97C193.747 308.258 193.715 308.674 193.715 309.218C193.715 311.842 195.363 313.154 198.659 313.154C199.971 313.154 201.155 312.962 202.211 312.578C203.299 312.194 204.355 311.57 205.379 310.706L207.539 313.058C206.355 314.21 205.027 315.058 203.555 315.602C202.083 316.146 200.403 316.418 198.515 316.418C195.539 316.418 193.283 315.874 191.747 314.786C190.211 313.698 189.443 312.066 189.443 309.89C189.443 309.186 189.507 308.53 189.635 307.922L190.883 300.77C191.331 298.274 192.451 296.322 194.243 294.914C196.067 293.506 198.403 292.802 201.251 292.802C203.971 292.802 206.115 293.442 207.683 294.722C209.251 295.97 210.035 297.714 210.035 299.954C210.035 302.258 209.571 303.922 208.643 304.946C207.715 305.97 206.211 306.482 204.131 306.482H194.051L193.811 307.97ZM201.155 296.066C199.491 296.066 198.115 296.514 197.027 297.41C195.971 298.274 195.299 299.49 195.011 301.058L194.579 303.458H202.739C203.827 303.458 204.611 303.202 205.091 302.69C205.571 302.178 205.811 301.282 205.811 300.002C205.811 298.754 205.395 297.794 204.563 297.122C203.763 296.418 202.627 296.066 201.155 296.066Z" fill="#2C1F1F"/>
<path d="M184.077 288.914C183.437 288.914 182.893 288.706 182.445 288.29C182.029 287.874 181.821 287.346 181.821 286.706C181.821 285.906 182.141 285.186 182.781 284.546C183.453 283.874 184.205 283.538 185.037 283.538C185.677 283.538 186.205 283.762 186.621 284.21C187.037 284.626 187.245 285.154 187.245 285.794C187.245 286.594 186.909 287.314 186.237 287.954C185.597 288.594 184.877 288.914 184.077 288.914ZM180.717 316.418C179.757 315.778 179.053 315.122 178.605 314.45C178.189 313.778 177.981 312.994 177.981 312.098C177.981 311.554 178.013 311.138 178.077 310.85L181.197 293.33H185.421L182.301 310.85C182.269 311.01 182.253 311.234 182.253 311.522C182.253 311.97 182.349 312.386 182.541 312.77C182.765 313.122 183.101 313.506 183.549 313.922L180.717 316.418Z" fill="#2C1F1F"/>
<path d="M172.872 292.802C173.544 292.802 174.216 292.882 174.888 293.042C175.592 293.202 176.152 293.458 176.568 293.81L174.84 297.506C173.944 296.866 172.856 296.546 171.576 296.546C169.976 296.546 168.568 297.202 167.352 298.514C166.168 299.794 165.176 301.394 164.376 303.314L162.168 315.89H157.944L161.016 298.37C161.08 297.986 161.112 297.73 161.112 297.602C161.112 297.186 161 296.802 160.776 296.45C160.584 296.066 160.264 295.666 159.816 295.25L162.696 292.802C163.656 293.346 164.344 293.938 164.76 294.578C165.176 295.186 165.384 295.938 165.384 296.834C165.384 297.186 165.368 297.474 165.336 297.698C167.288 294.434 169.8 292.802 172.872 292.802Z" fill="#2C1F1F"/>
<path d="M138.686 307.97C138.622 308.258 138.59 308.674 138.59 309.218C138.59 311.842 140.238 313.154 143.534 313.154C144.846 313.154 146.03 312.962 147.086 312.578C148.174 312.194 149.23 311.57 150.254 310.706L152.414 313.058C151.23 314.21 149.902 315.058 148.43 315.602C146.958 316.146 145.278 316.418 143.39 316.418C140.414 316.418 138.158 315.874 136.622 314.786C135.086 313.698 134.318 312.066 134.318 309.89C134.318 309.186 134.382 308.53 134.51 307.922L135.758 300.77C136.206 298.274 137.326 296.322 139.118 294.914C140.942 293.506 143.278 292.802 146.126 292.802C148.846 292.802 150.99 293.442 152.558 294.722C154.126 295.97 154.91 297.714 154.91 299.954C154.91 302.258 154.446 303.922 153.518 304.946C152.59 305.97 151.086 306.482 149.006 306.482H138.926L138.686 307.97ZM146.03 296.066C144.366 296.066 142.99 296.514 141.902 297.41C140.846 298.274 140.174 299.49 139.886 301.058L139.454 303.458H147.614C148.702 303.458 149.486 303.202 149.966 302.69C150.446 302.178 150.686 301.282 150.686 300.002C150.686 298.754 150.27 297.794 149.438 297.122C148.638 296.418 147.502 296.066 146.03 296.066Z" fill="#2C1F1F"/>
<path d="M123.709 308.738C123.613 309.218 123.565 309.666 123.565 310.082C123.565 311.874 124.509 312.77 126.397 312.77H129.421L128.845 316.082H125.821C123.645 316.082 122.013 315.666 120.925 314.834C119.837 314.002 119.293 312.674 119.293 310.85C119.293 310.114 119.357 309.41 119.485 308.738L123.037 288.674C123.069 288.514 123.085 288.29 123.085 288.002C123.085 287.554 122.989 287.138 122.797 286.754C122.605 286.37 122.269 285.97 121.789 285.554L124.669 283.106C125.629 283.65 126.317 284.258 126.733 284.93C127.181 285.57 127.405 286.338 127.405 287.234C127.405 287.65 127.357 288.13 127.261 288.674L126.445 293.33H132.877L132.253 296.642H125.869L123.709 308.738Z" fill="#2C1F1F"/>
<path d="M102.514 316.418C99.6342 316.418 97.4262 315.794 95.8902 314.546C94.3542 313.266 93.5862 311.554 93.5862 309.41C93.5862 308.834 93.6342 308.258 93.7302 307.682L94.8342 301.538C95.3142 298.786 96.4662 296.642 98.2902 295.106C100.114 293.57 102.626 292.802 105.826 292.802C108.674 292.802 110.834 293.426 112.306 294.674C113.81 295.922 114.562 297.618 114.562 299.762C114.562 300.306 114.514 300.898 114.418 301.538L113.362 307.682C112.882 310.402 111.746 312.546 109.954 314.114C108.162 315.65 105.682 316.418 102.514 316.418ZM102.562 313.106C104.418 313.106 105.906 312.61 107.026 311.618C108.146 310.626 108.85 309.314 109.138 307.682L110.194 301.538C110.29 301.058 110.338 300.61 110.338 300.194C110.338 298.946 109.938 297.954 109.138 297.218C108.37 296.482 107.17 296.114 105.538 296.114C103.682 296.114 102.21 296.61 101.122 297.602C100.034 298.594 99.3462 299.906 99.0582 301.538L97.9542 307.682C97.8902 307.97 97.8582 308.402 97.8582 308.978C97.8582 310.258 98.2422 311.266 99.0102 312.002C99.7782 312.738 100.962 313.106 102.562 313.106Z" fill="#2C1F1F"/>
<path d="M81.1961 292.802C83.8201 292.802 85.8521 293.602 87.2921 295.202C88.7641 296.802 89.5001 298.914 89.5001 301.538C89.5001 302.05 89.4361 302.818 89.3081 303.842L89.0681 305.378C88.5881 308.514 87.3561 311.138 85.3721 313.25C83.4201 315.362 80.8761 316.418 77.7401 316.418C76.0761 316.418 74.6201 316.114 73.3721 315.506C72.1241 314.898 71.1641 314.05 70.4921 312.962L68.1401 326.402H63.9161L68.8601 298.37C68.9241 297.986 68.9561 297.73 68.9561 297.602C68.9561 297.154 68.8601 296.77 68.6681 296.45C68.4761 296.13 68.1401 295.746 67.6601 295.298L70.4921 292.802C71.3561 293.346 71.9961 293.922 72.4121 294.53C72.8601 295.138 73.1161 295.842 73.1801 296.642C75.1641 294.082 77.8361 292.802 81.1961 292.802ZM85.0841 303.842C85.1801 303.202 85.2281 302.61 85.2281 302.066C85.2281 300.306 84.7641 298.882 83.8361 297.794C82.9401 296.674 81.6121 296.114 79.8521 296.114C76.6201 296.114 74.2201 297.698 72.6521 300.866L71.3561 308.354C71.5801 309.922 72.1881 311.106 73.1801 311.906C74.2041 312.706 75.5321 313.106 77.1641 313.106C79.1801 313.106 80.8601 312.402 82.2041 310.994C83.5801 309.554 84.4601 307.682 84.8441 305.378L85.0841 303.842Z" fill="#2C1F1F"/>
<path d="M193.811 257.97C193.747 258.258 193.715 258.674 193.715 259.218C193.715 261.842 195.363 263.154 198.659 263.154C199.971 263.154 201.155 262.962 202.211 262.578C203.299 262.194 204.355 261.57 205.379 260.706L207.539 263.058C206.355 264.21 205.027 265.058 203.555 265.602C202.083 266.146 200.403 266.418 198.515 266.418C195.539 266.418 193.283 265.874 191.747 264.786C190.211 263.698 189.443 262.066 189.443 259.89C189.443 259.186 189.507 258.53 189.635 257.922L190.883 250.77C191.331 248.274 192.451 246.322 194.243 244.914C196.067 243.506 198.403 242.802 201.251 242.802C203.971 242.802 206.115 243.442 207.683 244.722C209.251 245.97 210.035 247.714 210.035 249.954C210.035 252.258 209.571 253.922 208.643 254.946C207.715 255.97 206.211 256.482 204.131 256.482H194.051L193.811 257.97ZM201.155 246.066C199.491 246.066 198.115 246.514 197.027 247.41C195.971 248.274 195.299 249.49 195.011 251.058L194.579 253.458H202.739C203.827 253.458 204.611 253.202 205.091 252.69C205.571 252.178 205.811 251.282 205.811 250.002C205.811 248.754 205.395 247.794 204.563 247.122C203.763 246.418 202.627 246.066 201.155 246.066Z" fill="#2C1F1F"/>
<path d="M183.042 260.85C182.978 261.234 182.946 261.506 182.946 261.666C182.946 262.082 183.042 262.466 183.234 262.818C183.426 263.138 183.762 263.506 184.242 263.922L181.41 266.418C179.906 265.426 179.058 264.242 178.866 262.866C176.818 265.234 174.162 266.418 170.898 266.418C168.242 266.418 166.162 265.618 164.658 264.018C163.154 262.418 162.402 260.306 162.402 257.682C162.402 256.818 162.466 256.05 162.594 255.378L162.834 253.842C163.154 251.794 163.826 249.938 164.85 248.274C165.906 246.578 167.25 245.25 168.882 244.29C170.546 243.298 172.418 242.802 174.498 242.802C176.162 242.802 177.57 243.106 178.722 243.714C179.906 244.322 180.802 245.138 181.41 246.162L183.138 236.322C183.17 236.162 183.186 235.938 183.186 235.65C183.186 235.17 183.09 234.754 182.898 234.402C182.706 234.018 182.386 233.618 181.938 233.202L184.818 230.706C185.746 231.25 186.418 231.858 186.834 232.53C187.282 233.17 187.506 233.938 187.506 234.834C187.506 235.282 187.458 235.778 187.362 236.322L183.042 260.85ZM180.594 250.818C180.37 249.25 179.778 248.082 178.818 247.314C177.858 246.514 176.61 246.114 175.074 246.114C173.026 246.114 171.266 246.834 169.794 248.274C168.322 249.714 167.41 251.57 167.058 253.842L166.818 255.378C166.722 255.986 166.674 256.594 166.674 257.202C166.674 259.026 167.138 260.466 168.066 261.522C168.994 262.578 170.322 263.106 172.05 263.106C175.282 263.106 177.698 261.522 179.298 258.354L180.594 250.818Z" fill="#2C1F1F"/>
<path d="M145.591 242.802C146.263 242.802 146.935 242.882 147.607 243.042C148.311 243.202 148.871 243.458 149.287 243.81L147.559 247.506C146.663 246.866 145.575 246.546 144.295 246.546C142.695 246.546 141.287 247.202 140.071 248.514C138.887 249.794 137.895 251.394 137.095 253.314L134.887 265.89H130.663L133.735 248.37C133.799 247.986 133.831 247.73 133.831 247.602C133.831 247.186 133.719 246.802 133.495 246.45C133.303 246.066 132.983 245.666 132.535 245.25L135.415 242.802C136.375 243.346 137.063 243.938 137.479 244.578C137.895 245.186 138.103 245.938 138.103 246.834C138.103 247.186 138.087 247.474 138.055 247.698C140.007 244.434 142.519 242.802 145.591 242.802Z" fill="#2C1F1F"/>
<path d="M111.405 257.97C111.341 258.258 111.309 258.674 111.309 259.218C111.309 261.842 112.957 263.154 116.253 263.154C117.565 263.154 118.749 262.962 119.805 262.578C120.893 262.194 121.949 261.57 122.973 260.706L125.133 263.058C123.949 264.21 122.621 265.058 121.149 265.602C119.677 266.146 117.997 266.418 116.109 266.418C113.133 266.418 110.877 265.874 109.341 264.786C107.805 263.698 107.037 262.066 107.037 259.89C107.037 259.186 107.101 258.53 107.229 257.922L108.477 250.77C108.925 248.274 110.045 246.322 111.837 244.914C113.661 243.506 115.997 242.802 118.845 242.802C121.565 242.802 123.709 243.442 125.277 244.722C126.845 245.97 127.629 247.714 127.629 249.954C127.629 252.258 127.165 253.922 126.237 254.946C125.309 255.97 123.805 256.482 121.725 256.482H111.645L111.405 257.97ZM118.749 246.066C117.085 246.066 115.709 246.514 114.621 247.41C113.565 248.274 112.893 249.49 112.605 251.058L112.173 253.458H120.333C121.421 253.458 122.205 253.202 122.685 252.69C123.165 252.178 123.405 251.282 123.405 250.002C123.405 248.754 122.989 247.794 122.157 247.122C121.357 246.418 120.221 246.066 118.749 246.066Z" fill="#2C1F1F"/>
<path d="M101.671 238.914C101.031 238.914 100.487 238.706 100.039 238.29C99.6232 237.874 99.4152 237.346 99.4152 236.706C99.4152 235.906 99.7352 235.186 100.375 234.546C101.047 233.874 101.799 233.538 102.631 233.538C103.271 233.538 103.799 233.762 104.215 234.21C104.631 234.626 104.839 235.154 104.839 235.794C104.839 236.594 104.503 237.314 103.831 237.954C103.191 238.594 102.471 238.914 101.671 238.914ZM98.3112 266.418C97.3512 265.778 96.6472 265.122 96.1992 264.45C95.7832 263.778 95.5752 262.994 95.5752 262.098C95.5752 261.554 95.6072 261.138 95.6712 260.85L98.7912 243.33H103.015L99.8952 260.85C99.8632 261.01 99.8472 261.234 99.8472 261.522C99.8472 261.97 99.9432 262.386 100.135 262.77C100.359 263.122 100.695 263.506 101.143 263.922L98.3112 266.418Z" fill="#2C1F1F"/>
<path d="M86.3536 266.418C85.4256 265.81 84.7376 265.17 84.2896 264.498C83.8416 263.826 83.6176 263.042 83.6176 262.146C83.6176 261.762 83.6656 261.33 83.7616 260.85L88.0816 236.274C88.1456 235.89 88.1776 235.634 88.1776 235.506C88.1776 235.09 88.0656 234.706 87.8416 234.354C87.6496 234.002 87.3296 233.618 86.8816 233.202L89.7136 230.706C90.6416 231.314 91.3136 231.954 91.7296 232.626C92.1776 233.298 92.4016 234.082 92.4016 234.978C92.4016 235.554 92.3696 235.986 92.3056 236.274L87.9856 260.85C87.9216 261.234 87.8896 261.49 87.8896 261.618C87.8896 262.034 87.9856 262.418 88.1776 262.77C88.4016 263.122 88.7376 263.506 89.1856 263.922L86.3536 266.418Z" fill="#2C1F1F"/>
<path d="M63.6394 257.97C63.5754 258.258 63.5434 258.674 63.5434 259.218C63.5434 261.842 65.1914 263.154 68.4874 263.154C69.7994 263.154 70.9834 262.962 72.0394 262.578C73.1274 262.194 74.1834 261.57 75.2074 260.706L77.3674 263.058C76.1834 264.21 74.8554 265.058 73.3834 265.602C71.9114 266.146 70.2314 266.418 68.3434 266.418C65.3674 266.418 63.1114 265.874 61.5754 264.786C60.0394 263.698 59.2714 262.066 59.2714 259.89C59.2714 259.186 59.3354 258.53 59.4634 257.922L60.7114 250.77C61.1594 248.274 62.2794 246.322 64.0714 244.914C65.8954 243.506 68.2314 242.802 71.0794 242.802C73.7994 242.802 75.9434 243.442 77.5114 244.722C79.0794 245.97 79.8634 247.714 79.8634 249.954C79.8634 252.258 79.3994 253.922 78.4714 254.946C77.5434 255.97 76.0394 256.482 73.9594 256.482H63.8794L63.6394 257.97ZM70.9834 246.066C69.3194 246.066 67.9434 246.514 66.8554 247.41C65.7994 248.274 65.1274 249.49 64.8394 251.058L64.4074 253.458H72.5674C73.6554 253.458 74.4394 253.202 74.9194 252.69C75.3994 252.178 75.6394 251.282 75.6394 250.002C75.6394 248.754 75.2234 247.794 74.3914 247.122C73.5914 246.418 72.4554 246.066 70.9834 246.066Z" fill="#2C1F1F"/>
<path d="M48.662 258.738C48.566 259.218 48.518 259.666 48.518 260.082C48.518 261.874 49.462 262.77 51.35 262.77H54.374L53.798 266.082H50.774C48.598 266.082 46.966 265.666 45.878 264.834C44.79 264.002 44.246 262.674 44.246 260.85C44.246 260.114 44.31 259.41 44.438 258.738L47.99 238.674C48.022 238.514 48.038 238.29 48.038 238.002C48.038 237.554 47.942 237.138 47.75 236.754C47.558 236.37 47.222 235.97 46.742 235.554L49.622 233.106C50.582 233.65 51.27 234.258 51.686 234.93C52.134 235.57 52.358 236.338 52.358 237.234C52.358 237.65 52.31 238.13 52.214 238.674L51.398 243.33H57.83L57.206 246.642H50.822L48.662 258.738Z" fill="#2C1F1F"/>
<path d="M33.8457 256.098H19.3977L14.6937 265.89H10.1337L23.5257 238.242C24.6457 235.874 25.7337 234.21 26.7897 233.25C27.8457 232.258 29.2057 231.762 30.8697 231.762C32.5337 231.762 33.7337 232.242 34.4697 233.202C35.2057 234.162 35.7177 235.842 36.0057 238.242L39.7017 265.89H35.0937L33.8457 256.098ZM33.4137 252.594L31.6377 238.29C31.5097 237.458 31.3337 236.866 31.1097 236.514C30.9177 236.162 30.6137 235.986 30.1977 235.986C29.7177 235.986 29.3177 236.162 28.9977 236.514C28.6777 236.866 28.3097 237.458 27.8937 238.29L21.0297 252.594H33.4137Z" fill="#2C1F1F"/>
</svg>
